<svg width="40" height="40" viewBox="0 0 40 40" fill="none" xmlns="http://www.w3.org/2000/svg">
<rect width="40" height="40" rx="14" fill="#BA59FE" fill-opacity="0.1"/>
<path fill-rule="evenodd" clip-rule="evenodd" d="M22.6017 24.1268L22.194 24.2177V24.7661C22.194 25.7066 21.6095 26.5066 20.7939 26.8032V28.28C20.7939 28.6776 20.4804 29 20.0938 29C19.7072 29 19.3938 28.6776 19.3938 28.28V26.8032C18.5781 26.5066 17.9937 25.7066 17.9937 24.7661V24.2578C17.9328 24.2454 17.8721 24.2324 17.8114 24.2189L17.3983 24.1268C15.3828 23.6776 13.788 22.0942 13.2805 20.0384C12.9065 18.5235 12.9065 16.9365 13.2805 15.4217C13.788 13.3659 15.3828 11.7824 17.3983 11.3332L17.8114 11.2411C19.2537 10.9196 20.7463 10.9196 22.1886 11.2411L22.6017 11.3332C24.6172 11.7824 26.212 13.3659 26.7195 15.4217C27.0935 16.9365 27.0935 18.5235 26.7195 20.0384C26.212 22.0942 24.6172 23.6776 22.6017 24.1268ZM20.7939 24.4286C20.7127 24.435 20.6314 24.4405 20.5501 24.445C20.1649 24.4661 19.7789 24.465 19.3938 24.4417V24.7661C19.3938 25.1637 19.7072 25.4861 20.0938 25.4861C20.4804 25.4861 20.7939 25.1637 20.7939 24.7661V24.4286ZM20.817 14.8702C21.0586 15.0689 21.0977 15.4314 20.9045 15.6798L19.7656 17.144H21.4006C21.6159 17.144 21.8121 17.2709 21.9053 17.4705C21.9986 17.67 21.9724 17.9069 21.8379 18.0798L19.9711 20.4798C19.7779 20.7282 19.4255 20.7685 19.1839 20.5698C18.9424 20.3711 18.9033 20.0086 19.0965 19.7602L20.2354 18.296H18.6004C18.3851 18.296 18.1889 18.1691 18.0956 17.9695C18.0024 17.77 18.0286 17.5331 18.1631 17.3602L20.0299 14.9602C20.2231 14.7118 20.5755 14.6715 20.817 14.8702Z" fill="#BA59FE"/>
</svg>
