<svg width="40" height="40" viewBox="0 0 40 40" fill="none" xmlns="http://www.w3.org/2000/svg">
<rect width="40" height="40" rx="14" fill="#2299DD" fill-opacity="0.1"/>
<path d="M28.0506 24.0345H24.5159C24.8354 22.9067 25.0245 21.6461 25.0499 20.3103H28.9994C28.954 21.6467 28.6189 22.9073 28.0506 24.0345ZM16.313 24.6552H19.6891V28.3495C18.2833 28.1646 17.056 26.7457 16.313 24.6552ZM11 20.3103H14.9501C14.9755 21.6461 15.1646 22.9067 15.4841 24.0345H11.9494C11.3811 22.9073 11.046 21.6467 11 20.3103ZM11.9494 15.9655H15.4848C15.1652 17.0933 14.9762 18.3539 14.9507 19.6897H11C11.046 18.3533 11.3811 17.0927 11.9494 15.9655ZM23.687 15.3448H20.3109V11.6505C21.7167 11.8354 22.9447 13.2543 23.687 15.3448ZM23.8873 15.9655C24.2124 17.0778 24.4033 18.344 24.4294 19.6897H20.3109V15.9655H23.8873ZM19.6891 15.3448H16.313C17.056 13.2543 18.2833 11.8354 19.6891 11.6505V15.3448ZM19.6891 15.9655V19.6897H15.5712C15.5973 18.344 15.7882 17.0778 16.1134 15.9655H19.6891ZM15.5712 20.3103H19.6891V24.0345H16.1134C15.7882 22.9228 15.5973 21.656 15.5712 20.3103ZM20.3109 24.6552H23.687C22.9447 26.7457 21.7167 28.1646 20.3109 28.3495V24.6552ZM20.3109 24.0345V20.3103H24.4288C24.4027 21.656 24.2118 22.9228 23.8866 24.0345H20.3109ZM25.0499 19.6897C25.0245 18.3539 24.8354 17.0933 24.5159 15.9655H28.0506C28.6182 17.0927 28.954 18.3533 29 19.6897H25.0499ZM20 11C23.2698 11 26.1244 12.7435 27.7049 15.3448H24.3212C23.4334 12.7454 21.8311 11 20 11C18.1689 11 16.5666 12.7454 15.6788 15.3448H12.2951C13.8756 12.7435 16.7302 11 20 11ZM20 29C16.7302 29 13.8756 27.2565 12.2951 24.6552H15.6788C16.5666 27.2546 18.1689 29 20 29C21.8311 29 23.4334 27.2546 24.3212 24.6552H27.7049C26.1244 27.2565 23.2698 29 20 29Z" fill="#2299DD"/>
</svg>
