<svg width="40" height="40" viewBox="0 0 40 40" fill="none" xmlns="http://www.w3.org/2000/svg">
<rect width="40" height="40" rx="14" fill="#A4A7AD" fill-opacity="0.1"/>
<path d="M15.8783 20.07C15.8783 19.66 16.2183 19.32 16.6283 19.32H22.1083V10.86C22.0983 10.38 21.7183 10 21.2383 10C15.3483 10 11.2383 14.11 11.2383 20C11.2383 25.89 15.3483 30 21.2383 30C21.7083 30 22.0983 29.62 22.0983 29.14V20.81H16.6283C16.2083 20.82 15.8783 20.48 15.8783 20.07Z" fill="#A4A7AD"/>
<path d="M28.5377 19.5402L25.6977 16.6902C25.4077 16.4002 24.9277 16.4002 24.6377 16.6902C24.3477 16.9802 24.3477 17.4602 24.6377 17.7502L26.1977 19.3102H22.0977V20.8102H26.1877L24.6277 22.3702C24.3377 22.6602 24.3377 23.1402 24.6277 23.4302C24.7777 23.5802 24.9677 23.6502 25.1577 23.6502C25.3477 23.6502 25.5377 23.5802 25.6877 23.4302L28.5277 20.5802C28.8277 20.3002 28.8277 19.8302 28.5377 19.5402Z" fill="#A4A7AD"/>
</svg>
