<svg width="40" height="40" viewBox="0 0 40 40" fill="none" xmlns="http://www.w3.org/2000/svg">
<rect width="40" height="40" rx="14" fill="#FCA000" fill-opacity="0.1"/>
<path d="M22.857 12.9259C21.7901 10.358 18.2099 10.358 17.143 12.9259L16.5837 14.2719C16.361 14.8078 15.8757 15.1723 15.3211 15.2351L13.7604 15.4118C11.1221 15.7105 10.0693 18.9949 11.9663 20.8289L13.2914 22.11C13.6829 22.4885 13.8589 23.0499 13.751 23.596L13.431 25.2142C12.8998 27.901 15.795 29.9982 18.1279 28.5005L19.1745 27.8286C19.6797 27.5043 20.3203 27.5043 20.8255 27.8286L21.8721 28.5005C24.205 29.9982 27.1002 27.901 26.569 25.2142L26.249 23.596C26.1411 23.0499 26.3171 22.4885 26.7086 22.11L28.0337 20.8289C29.9307 18.9949 28.8779 15.7105 26.2396 15.4118L24.6789 15.2351C24.1243 15.1723 23.639 14.8078 23.4163 14.2719L22.857 12.9259Z" fill="#FCA000"/>
</svg>
