<svg width="40" height="40" viewBox="0 0 40 40" fill="none" xmlns="http://www.w3.org/2000/svg">
<rect width="40" height="40" rx="14" fill="#1E54A2" fill-opacity="0.1"/>
<g clip-path="url(#clip0_740_10497)">
<path fill-rule="evenodd" clip-rule="evenodd" d="M11 12.5C11.4142 12.5 11.75 12.8358 11.75 13.25V15.5H14C14.4142 15.5 14.75 15.8358 14.75 16.25C14.75 16.6642 14.4142 17 14 17H11C10.5858 17 10.25 16.6642 10.25 16.25V13.25C10.25 12.8358 10.5858 12.5 11 12.5Z" fill="#1E54A2"/>
<path fill-rule="evenodd" clip-rule="evenodd" d="M11.1449 15.9368C12.6851 12.5857 16.0653 10.25 20.0004 10.25C25.3856 10.25 29.7504 14.6148 29.7504 20C29.7504 20.4142 29.4146 20.75 29.0004 20.75C28.5861 20.75 28.2504 20.4142 28.2504 20C28.2504 15.4432 24.5571 11.75 20.0004 11.75C16.6754 11.75 13.8136 13.7223 12.5078 16.5632C12.3348 16.9396 11.8895 17.1045 11.5131 16.9315C11.1368 16.7585 10.9719 16.3131 11.1449 15.9368Z" fill="#1E54A2"/>
<path fill-rule="evenodd" clip-rule="evenodd" d="M25.25 23.75C25.25 23.3358 25.5858 23 26 23H29C29.4142 23 29.75 23.3358 29.75 23.75V26.75C29.75 27.1642 29.4142 27.5 29 27.5C28.5858 27.5 28.25 27.1642 28.25 26.75V24.5H26C25.5858 24.5 25.25 24.1642 25.25 23.75Z" fill="#1E54A2"/>
<path fill-rule="evenodd" clip-rule="evenodd" d="M11 19.25C11.4142 19.25 11.75 19.5858 11.75 20C11.75 24.5568 15.4432 28.25 20 28.25C23.3249 28.25 26.1868 26.2777 27.4925 23.4368C27.6655 23.0604 28.1109 22.8955 28.4872 23.0685C28.8636 23.2415 29.0285 23.6869 28.8555 24.0632C27.3152 27.4143 23.9351 29.75 20 29.75C14.6148 29.75 10.25 25.3852 10.25 20C10.25 19.5858 10.5858 19.25 11 19.25Z" fill="#1E54A2"/>
</g>
<defs>
<clipPath id="clip0_740_10497">
<rect width="24" height="24" fill="white" transform="translate(8 8)"/>
</clipPath>
</defs>
</svg>
