<svg width="40" height="40" viewBox="0 0 40 40" fill="none" xmlns="http://www.w3.org/2000/svg">
<rect width="40" height="40" rx="14" fill="#D80027" fill-opacity="0.1"/>
<path fill-rule="evenodd" clip-rule="evenodd" d="M22.9703 11.3437C21.0166 10.8854 18.9834 10.8854 17.0297 11.3437C14.2084 12.0055 12.0055 14.2084 11.3437 17.0297C10.8854 18.9834 10.8854 21.0166 11.3437 22.9703C12.0055 25.7916 14.2084 27.9945 17.0297 28.6563C18.9834 29.1146 21.0166 29.1146 22.9703 28.6563C25.7916 27.9945 27.9945 25.7916 28.6563 22.9703C29.1146 21.0166 29.1146 18.9834 28.6563 17.0298C27.9945 14.2084 25.7916 12.0055 22.9703 11.3437ZM20.6219 16.2453C21.0373 15.8299 21.6008 15.5965 22.1883 15.5965C23.4117 15.5965 24.4035 16.5883 24.4035 17.8117C24.4035 18.3992 24.1701 18.9627 23.7547 19.3781L21.255 21.8778C20.0947 23.0381 18.6408 23.8613 17.0489 24.2593L16.5658 24.38C15.9946 24.5228 15.4772 24.0055 15.62 23.4343L15.7407 22.9511C16.1387 21.3592 16.9619 19.9053 18.1222 18.745L20.6219 16.2453ZM22.1883 16.7452C21.9054 16.7452 21.6342 16.8576 21.4342 17.0576L21.0717 17.4201C21.0359 17.7052 21.1783 18.1031 21.5376 18.4624C21.8969 18.8217 22.2948 18.9641 22.5799 18.9284L22.9424 18.5658C23.1424 18.3658 23.2548 18.0946 23.2548 17.8117C23.2548 17.2227 22.7773 16.7452 22.1883 16.7452ZM21.6171 19.8911C21.2757 19.7409 20.9685 19.5179 20.7253 19.2747C20.4821 19.0315 20.2591 18.7244 20.1089 18.3829L18.9345 19.5573C17.9493 20.5425 17.2424 21.7701 16.8847 23.1153C18.2299 22.7576 19.4575 22.0507 20.4427 21.0655L21.6171 19.8911Z" fill="#EC1C36"/>
</svg>
