<svg width="40" height="40" viewBox="0 0 40 40" fill="none" xmlns="http://www.w3.org/2000/svg">
<rect width="40" height="40" rx="14" fill="#EF6087" fill-opacity="0.1"/>
<path d="M13.3077 15.8857C13.3077 13.7397 15.0641 12 17.2308 12C19.3974 12 21.1538 13.7397 21.1538 15.8857C21.1538 18.0317 19.3974 19.7714 17.2308 19.7714C15.0641 19.7714 13.3077 18.0317 13.3077 15.8857Z" fill="#EF6087"/>
<path d="M14.7512 21.5261L14.9156 21.5001C16.4494 21.2577 18.0122 21.2577 19.5459 21.5001L19.7103 21.5261C21.8714 21.8677 23.4615 23.714 23.4615 25.8816C23.4615 27.0516 22.504 28 21.3228 28H13.1387C11.9575 28 11 27.0516 11 25.8816C11 23.714 12.5902 21.8677 14.7512 21.5261Z" fill="#EF6087"/>
<path d="M22.7692 12C22.3869 12 22.0769 12.307 22.0769 12.6857C22.0769 13.0644 22.3869 13.3714 22.7692 13.3714C24.1712 13.3714 25.3077 14.4971 25.3077 15.8857C25.3077 17.2743 24.1712 18.4 22.7692 18.4C22.3869 18.4 22.0769 18.707 22.0769 19.0857C22.0769 19.4644 22.3869 19.7714 22.7692 19.7714C24.9359 19.7714 26.6923 18.0317 26.6923 15.8857C26.6923 13.7397 24.9359 12 22.7692 12Z" fill="#EF6087"/>
<path d="M23.9149 21.4916C23.5326 21.4916 23.2226 21.7986 23.2226 22.1773C23.2226 22.556 23.5326 22.863 23.9149 22.863H24.8086C24.8829 22.863 24.9573 22.8688 25.0306 22.8804C26.5197 23.1158 27.6154 24.388 27.6154 25.8816C27.6154 26.2942 27.2778 26.6286 26.8613 26.6286H24.9753C24.5929 26.6286 24.283 26.9356 24.283 27.3143C24.283 27.693 24.5929 28 24.9753 28H26.8613C28.0425 28 29 27.0516 29 25.8816C29 23.714 27.4098 21.8677 25.2488 21.5261C25.1032 21.5031 24.9559 21.4916 24.8086 21.4916H23.9149Z" fill="#EF6087"/>
</svg>
