<svg width="10" height="5" viewBox="0 0 10 5" fill="none" xmlns="http://www.w3.org/2000/svg">
    <path
        d="M9.88146 0.644676L5.30154 4.88388C5.22109 4.95833 5.1132 5 5.00086 5C4.88852 5 4.78063 4.95833 4.70019 4.88388L0.118538 0.644677C0.081024 0.609994 0.0512073 0.568527 0.0308474 0.522723C0.0104883 0.476919 -1.99861e-07 0.427706 -2.02035e-07 0.377989C-2.04208e-07 0.328272 0.0104883 0.279058 0.0308473 0.233254C0.0512073 0.18745 0.081024 0.145983 0.118538 0.1113C0.195472 0.039947 0.298749 4.24055e-07 0.406292 4.19354e-07C0.513835 4.14653e-07 0.617111 0.039947 0.694044 0.1113L5.00086 4.09772L9.30682 0.1113C9.38371 0.0401917 9.4868 0.000399612 9.59414 0.000399607C9.70147 0.000399603 9.80457 0.0401917 9.88146 0.1113C9.91898 0.145983 9.94879 0.187449 9.96915 0.233254C9.98951 0.279058 10 0.328272 10 0.377988C10 0.427705 9.98951 0.476918 9.96915 0.522722C9.94879 0.568527 9.91898 0.609993 9.88146 0.644676Z"
        fill="#031F2E" />
</svg>
    