<svg width="25" height="24" viewBox="0 0 25 24" fill="none" xmlns="http://www.w3.org/2000/svg">
<path d="M8.44119 3.15595C7.55475 2.94802 6.63222 2.94802 5.74578 3.15595C4.58479 3.42828 3.67828 4.33479 3.40595 5.49578C3.19802 6.38222 3.19802 7.30475 3.40595 8.19119C3.67828 9.35218 4.58479 10.2587 5.74578 10.531C6.63222 10.739 7.55475 10.739 8.44119 10.531C9.60218 10.2587 10.5087 9.35218 10.781 8.19119C10.989 7.30475 10.989 6.38222 10.781 5.49578C10.5087 4.33479 9.60218 3.42828 8.44119 3.15595Z" fill="white"/>
<path d="M8.44119 13.469C7.55475 13.261 6.63222 13.261 5.74578 13.469C4.58479 13.7413 3.67828 14.6478 3.40595 15.8088C3.19802 16.6953 3.19802 17.6178 3.40595 18.5042C3.67828 19.6652 4.58479 20.5717 5.74578 20.8441C6.63222 21.052 7.55475 21.052 8.44119 20.8441C9.60218 20.5717 10.5087 19.6652 10.781 18.5042C10.989 17.6178 10.989 16.6953 10.781 15.8088C10.5087 14.6478 9.60218 13.7413 8.44119 13.469Z" fill="white"/>
<path d="M18.7542 3.15595C17.8678 2.94802 16.9453 2.94802 16.0588 3.15595C14.8978 3.42828 13.9913 4.33479 13.719 5.49578C13.511 6.38222 13.511 7.30475 13.719 8.19119C13.9913 9.35218 14.8978 10.2587 16.0588 10.531C16.9453 10.739 17.8678 10.739 18.7542 10.531C19.9152 10.2587 20.8217 9.35218 21.0941 8.19119C21.302 7.30475 21.302 6.38222 21.0941 5.49578C20.8217 4.33479 19.9152 3.42828 18.7542 3.15595Z" fill="white"/>
<path d="M18.7542 13.469C17.8678 13.261 16.9453 13.261 16.0588 13.469C14.8978 13.7413 13.9913 14.6478 13.719 15.8088C13.511 16.6953 13.511 17.6178 13.719 18.5042C13.9913 19.6652 14.8978 20.5717 16.0588 20.8441C16.9453 21.052 17.8678 21.052 18.7542 20.8441C19.9152 20.5717 20.8217 19.6652 21.0941 18.5042C21.302 17.6178 21.302 16.6953 21.0941 15.8088C20.8217 14.6478 19.9152 13.7413 18.7542 13.469Z" fill="white"/>
</svg>
