<svg width="37" height="37" viewBox="0 0 37 37" fill="none" xmlns="http://www.w3.org/2000/svg">
<rect x="0.875" y="0.875" width="36" height="36" rx="18" fill="#FCA000"/>
<path d="M23.0418 10.5417V12.2083M18.8752 10.5417V12.2083M14.7085 10.5417V12.2083" stroke="white" stroke-width="1.5" stroke-linecap="round" stroke-linejoin="round"/>
<path d="M11.7917 17.2083C11.7917 14.4585 11.7917 13.0835 12.646 12.2293C13.5003 11.375 14.8752 11.375 17.6251 11.375H20.1251C22.8749 11.375 24.2499 11.375 25.1041 12.2293C25.9584 13.0835 25.9584 14.4585 25.9584 17.2083V21.375C25.9584 24.1249 25.9584 25.4998 25.1041 26.3541C24.2499 27.2083 22.8749 27.2083 20.1251 27.2083H17.6251C14.8752 27.2083 13.5003 27.2083 12.646 26.3541C11.7917 25.4998 11.7917 24.1249 11.7917 21.375V17.2083Z" stroke="white" stroke-width="1.5" stroke-linecap="round" stroke-linejoin="round"/>
<path d="M15.5417 21.375H18.8751M15.5417 17.2083H22.2084" stroke="white" stroke-width="1.5" stroke-linecap="round"/>
</svg>
