<svg width="37" height="37" viewBox="0 0 37 37" fill="none" xmlns="http://www.w3.org/2000/svg">
<rect x="0.375" y="0.875" width="36" height="36" rx="18" fill="#4FBF67"/>
<path d="M26.7084 18.5139C26.7084 22.9165 22.9769 26.4862 18.3751 26.4862C17.834 26.4869 17.2945 26.4369 16.7629 26.337C16.3804 26.2652 16.1891 26.2293 16.0555 26.2497C15.922 26.2701 15.7327 26.3707 15.3542 26.572C14.2835 27.1414 13.035 27.3425 11.8343 27.1191C12.2907 26.5578 12.6024 25.8843 12.7399 25.1623C12.8232 24.7207 12.6167 24.2916 12.3075 23.9776C10.9029 22.5513 10.0417 20.6292 10.0417 18.5139C10.0417 14.1113 13.7732 10.5417 18.3751 10.5417C22.9769 10.5417 26.7084 14.1113 26.7084 18.5139Z" stroke="white" stroke-width="1.5" stroke-linejoin="round"/>
<path d="M18.3713 18.875H18.3788M21.7009 18.875H21.7084M15.0417 18.875H15.0492" stroke="white" stroke-width="2" stroke-linecap="round" stroke-linejoin="round"/>
</svg>
