<svg width="37" height="37" viewBox="0 0 37 37" fill="none" xmlns="http://www.w3.org/2000/svg">
<rect x="0.625" y="0.875" width="36" height="36" rx="18" fill="#BA59FE"/>
<path d="M22.7918 18.875C22.7918 21.1762 20.9263 23.0416 18.6252 23.0416C16.324 23.0416 14.4585 21.1762 14.4585 18.875C14.4585 16.5738 16.324 14.7083 18.6252 14.7083" stroke="white" stroke-width="1.5" stroke-linecap="round"/>
<path d="M20.2917 10.7084C19.7532 10.599 19.1959 10.5417 18.6251 10.5417C14.0227 10.5417 10.2917 14.2726 10.2917 18.875C10.2917 23.4774 14.0227 27.2083 18.6251 27.2083C23.2275 27.2083 26.9584 23.4774 26.9584 18.875C26.9584 18.3042 26.901 17.7468 26.7917 17.2083" stroke="white" stroke-width="1.5" stroke-linecap="round"/>
<path d="M22.4609 15.039L18.625 18.875M22.4609 15.039L22.1901 14.0011C21.985 13.2147 22.2658 12.3076 22.9155 11.6579L23.8734 10.7C24.1284 10.445 24.5232 10.5081 24.6038 10.8167L25.0341 12.4659L26.6833 12.8962C26.9919 12.9768 27.055 13.3716 26.8 13.6266L25.8421 14.5844C25.1924 15.2342 24.2852 15.515 23.4989 15.3099L22.4609 15.039Z" stroke="white" stroke-width="1.5" stroke-linecap="round" stroke-linejoin="round"/>
</svg>
