<svg width="37" height="37" viewBox="0 0 37 37" fill="none" xmlns="http://www.w3.org/2000/svg">
<rect x="0.125" y="0.875" width="36" height="36" rx="18" fill="#3FABA9"/>
<path d="M11.0416 17.2083C11.0416 14.0656 11.0416 12.4943 12.079 11.518C13.1163 10.5417 14.7858 10.5417 18.125 10.5417H18.7689C21.4866 10.5417 22.8454 10.5417 23.7891 11.2065C24.0594 11.397 24.2995 11.6229 24.5019 11.8774C25.2083 12.7656 25.2083 14.0445 25.2083 16.6023V18.7235C25.2083 21.1928 25.2083 22.4274 24.8175 23.4135C24.1893 24.9988 22.8607 26.2493 21.1763 26.8405C20.1286 27.2083 18.8168 27.2083 16.1931 27.2083C14.6939 27.2083 13.9443 27.2083 13.3456 26.9982C12.3831 26.6603 11.6239 25.9457 11.2649 25.0399C11.0416 24.4764 11.0416 23.7709 11.0416 22.3598V17.2083Z" stroke="white" stroke-width="1.5" stroke-linejoin="round"/>
<path d="M25.2083 18.875C25.2083 20.4091 23.9647 21.6528 22.4306 21.6528C21.8757 21.6528 21.2216 21.5556 20.6822 21.7001C20.2029 21.8285 19.8285 22.2029 19.7001 22.6822C19.5556 23.2216 19.6528 23.8757 19.6528 24.4306C19.6528 25.9647 18.4091 27.2083 16.875 27.2083" stroke="white" stroke-width="1.5" stroke-linecap="round" stroke-linejoin="round"/>
<path d="M14.7916 14.7083H20.625" stroke="white" stroke-width="1.5" stroke-linecap="round" stroke-linejoin="round"/>
<path d="M14.7916 18.0417H17.2916" stroke="white" stroke-width="1.5" stroke-linecap="round" stroke-linejoin="round"/>
</svg>
