<svg width="16" height="16" viewBox="0 0 16 16" fill="none" xmlns="http://www.w3.org/2000/svg">
<g clip-path="url(#clip0_64_1809)">
<circle cx="1" cy="1" r="1" transform="matrix(1 0 0 -1 10.667 5.33349)" stroke="#2299DD" stroke-linecap="round" stroke-linejoin="round"/>
<path d="M1.84965 7.42929C1.18089 8.1762 1.1665 9.30307 1.78027 10.0958C2.99824 11.6688 4.33132 13.0019 5.90438 14.2199C6.6971 14.8337 7.82397 14.8193 8.57088 14.1505C10.5988 12.3348 12.4559 10.4373 14.2481 8.35197C14.4253 8.14581 14.5361 7.89312 14.561 7.62242C14.671 6.42532 14.897 2.97645 13.9603 2.03983C13.0237 1.10321 9.57484 1.32918 8.37774 1.43918C8.10704 1.46405 7.85436 1.57489 7.6482 1.75208C5.56291 3.54431 3.66537 5.40141 1.84965 7.42929Z" stroke="#2299DD"/>
<path d="M4.66699 9.33349L6.66699 11.3335" stroke="#2299DD" stroke-linecap="round" stroke-linejoin="round"/>
</g>
<defs>
<clipPath id="clip0_64_1809">
<rect width="16" height="16" fill="white"/>
</clipPath>
</defs>
</svg>
