<svg width="37" height="37" viewBox="0 0 37 37" fill="none" xmlns="http://www.w3.org/2000/svg">
<rect x="0.625" y="0.875" width="36" height="36" rx="18" fill="#BA59FE"/>
<path d="M9.28711 23.875H10.7705V17.8594H12.2061V16.6836H10.7432V15.9453C10.7432 15.3096 11.0576 14.9883 11.7207 14.9883C11.9053 14.9883 12.0898 15.002 12.2334 15.0225V13.9287C12.0352 13.8945 11.707 13.8672 11.4062 13.8672C9.94336 13.8672 9.28711 14.5234 9.28711 15.918V16.6836H8.2959V17.8594H9.28711V23.875ZM15.8906 26.2676H17.1895C16.1914 25.1055 15.4326 22.4326 15.4326 20.1357C15.4326 17.832 16.1914 15.1729 17.1895 14.0107H15.8906C14.5303 15.6992 13.915 17.6885 13.915 20.1357C13.915 22.5762 14.5234 24.5723 15.8906 26.2676ZM17.6406 23.875H19.2402L20.833 21.2295H20.8672L22.46 23.875H24.0869L21.749 20.2383L24.1143 16.6836H22.4805L20.9355 19.2881H20.9014L19.3359 16.6836H17.6748L20.0195 20.2861L17.6406 23.875ZM25.8711 26.2676C27.2314 24.5723 27.8467 22.5762 27.8467 20.1357C27.8467 17.6953 27.2314 15.7061 25.8711 14.0107H24.5723C25.5703 15.1729 26.3291 17.832 26.3291 20.1357C26.3291 22.4326 25.5703 25.1055 24.5723 26.2676H25.8711Z" fill="white"/>
</svg>
