<svg width="37" height="37" viewBox="0 0 37 37" fill="none" xmlns="http://www.w3.org/2000/svg">
<rect x="0.625" y="0.875" width="36" height="36" rx="18" fill="#FCA000"/>
<path d="M20.51 11.8745C19.6214 10.9859 19.1771 10.5417 18.6251 10.5417C18.073 10.5417 17.6287 10.9859 16.7402 11.8745C16.207 12.4077 15.6786 12.6552 14.9185 12.6552C14.2548 12.6552 13.3104 12.5265 12.7917 13.0495C12.2772 13.5684 12.4053 14.5089 12.4053 15.1684C12.4053 15.9286 12.1577 16.4569 11.6245 16.9901C10.736 17.8787 10.2918 18.3229 10.2917 18.875C10.2918 19.427 10.736 19.8713 11.6246 20.7599C12.2219 21.3571 12.4053 21.7428 12.4053 22.5816C12.4053 23.2453 12.2766 24.1896 12.7997 24.7083C13.3186 25.2229 14.259 25.0947 14.9185 25.0947C15.728 25.0947 16.1178 25.2531 16.6956 25.8308C17.1875 26.3228 17.847 27.2083 18.6251 27.2083C19.4032 27.2083 20.0627 26.3228 20.5546 25.8308C21.1323 25.2531 21.5222 25.0947 22.3317 25.0947C22.9912 25.0947 23.9316 25.2229 24.4505 24.7083M25.6256 16.9901C26.5141 17.8787 26.9584 18.3229 26.9584 18.875C26.9584 19.427 26.5141 19.8713 25.6256 20.7599C25.0283 21.3571 24.8448 21.7428 24.8448 22.5816C24.8448 23.2453 24.9736 24.1896 24.4505 24.7083M24.4505 24.7083H24.4584" stroke="white" stroke-width="1.5" stroke-linecap="round" stroke-linejoin="round"/>
<path d="M15.2917 17.4647C15.2917 17.4647 17.1667 17.2083 18.6251 20.5417C18.6251 20.5417 22.8408 12.2083 26.9584 10.5417" stroke="white" stroke-width="1.5" stroke-linecap="round" stroke-linejoin="round"/>
</svg>
