<svg width="37" height="37" viewBox="0 0 37 37" fill="none" xmlns="http://www.w3.org/2000/svg">
<rect x="0.875" y="0.875" width="36" height="36" rx="18" fill="#EF6087"/>
<path d="M10.9287 16.6614C10.7216 16.6614 10.5326 16.4936 10.5421 16.2741C10.5979 14.9891 10.7541 14.1525 11.1918 13.4907C11.4436 13.11 11.7565 12.7788 12.1161 12.5122C13.0882 11.7917 14.4596 11.7917 17.2023 11.7917H20.5479C23.2906 11.7917 24.662 11.7917 25.6341 12.5122C25.9937 12.7788 26.3065 13.11 26.5584 13.4907C26.996 14.1524 27.1523 14.9889 27.2081 16.2737C27.2176 16.4934 27.0284 16.6614 26.821 16.6614C25.6662 16.6614 24.73 17.6525 24.73 18.875C24.73 20.0975 25.6662 21.0885 26.821 21.0885C27.0284 21.0885 27.2176 21.2566 27.2081 21.4763C27.1523 22.7611 26.996 23.5976 26.5584 24.2593C26.3065 24.64 25.9937 24.9712 25.6341 25.2378C24.662 25.9583 23.2906 25.9583 20.5479 25.9583H17.2023C14.4596 25.9583 13.0882 25.9583 12.1161 25.2378C11.7565 24.9712 11.4436 24.64 11.1918 24.2593C10.7541 23.5975 10.5979 22.7609 10.5421 21.4759C10.5326 21.2564 10.7216 21.0885 10.9287 21.0885C12.0835 21.0885 13.0197 20.0975 13.0197 18.875C13.0197 17.6525 12.0835 16.6614 10.9287 16.6614Z" stroke="white" stroke-width="1.5" stroke-linejoin="round"/>
<path d="M16.7917 20.9583L20.9584 16.7917" stroke="white" stroke-width="1.5" stroke-linecap="round" stroke-linejoin="round"/>
<path d="M16.7917 16.7917H16.8011M20.9491 20.9583H20.9584" stroke="white" stroke-width="2" stroke-linecap="round" stroke-linejoin="round"/>
</svg>
