<svg width="36" height="36" viewBox="0 0 36 36" fill="none" xmlns="http://www.w3.org/2000/svg">
<g clip-path="url(#clip0_343_6532)">
<path d="M18 36C27.9411 36 36 27.9411 36 18C36 8.05887 27.9411 0 18 0C8.05887 0 0 8.05887 0 18C0 27.9411 8.05887 36 18 36Z" fill="#EF6087"/>
<path d="M19.94 12.86H16.55C16.5462 12.8932 16.5462 12.9268 16.55 12.96C16.47 13.96 16.38 14.96 16.29 15.96C16.16 17.37 16.04 18.79 15.9 20.2C15.8149 21.1908 15.6544 22.1736 15.42 23.14C15.3066 23.6579 15.1035 24.152 14.82 24.6C14.6543 24.8708 14.42 25.093 14.1408 25.2441C13.8615 25.3951 13.5473 25.4696 13.23 25.46C12.8316 25.4558 12.4468 25.3142 12.1407 25.0591C11.8346 24.804 11.626 24.4511 11.55 24.06C11.5092 23.8595 11.5085 23.6528 11.548 23.452C11.5875 23.2512 11.6663 23.0602 11.78 22.89C12.05 22.49 12.33 22.1 12.62 21.71C13.4751 20.5321 14.1056 19.2066 14.48 17.8C14.7618 16.6791 14.9359 15.5339 15 14.38C15 13.92 15.05 13.47 15.07 13.02V12.88H14.52C13.9775 12.8417 13.4325 12.8992 12.91 13.05C12.2885 13.2359 11.7555 13.641 11.41 14.19C11.26 14.43 11.12 14.69 10.97 14.93C10.82 15.17 10.83 15.16 10.57 15.14H10.26C10.2538 15.1239 10.2538 15.1061 10.26 15.09C10.55 14.33 10.84 13.57 11.14 12.81C11.2894 12.4106 11.5096 12.0413 11.79 11.72C12.1146 11.3545 12.5331 11.0848 13 10.94C13.5065 10.7993 14.0257 10.7089 14.55 10.67C16.08 10.53 17.62 10.53 19.16 10.53H24.07H25.67V10.87C25.67 11.51 25.67 12.15 25.67 12.78C25.67 12.87 25.67 12.89 25.57 12.89H22.02C22.02 12.89 22.02 12.89 22.02 12.94C22.02 14.15 21.89 15.34 21.78 16.54C21.69 17.54 21.61 18.54 21.55 19.54C21.5 20.2095 21.5438 20.8826 21.68 21.54C21.7357 21.7852 21.8266 22.0209 21.95 22.24C22.0534 22.4399 22.2023 22.6128 22.3846 22.7448C22.567 22.8768 22.7777 22.9642 23 23C23.264 23.0603 23.5383 23.0592 23.8018 22.9967C24.0654 22.9343 24.3111 22.8123 24.52 22.64C24.8344 22.3679 25.0403 21.9916 25.1 21.58C25.1 21.42 25.15 21.25 25.18 21.08H25.74C25.7443 21.1065 25.7443 21.1335 25.74 21.16C25.685 22.1705 25.3679 23.1492 24.82 24C24.4707 24.6002 23.9169 25.0546 23.26 25.28C22.7768 25.459 22.2566 25.5143 21.7466 25.441C21.2366 25.3676 20.7531 25.1679 20.34 24.86C19.8357 24.4804 19.4816 23.9351 19.34 23.32C19.2184 22.8707 19.1711 22.4046 19.2 21.94C19.2 20.68 19.34 19.41 19.46 18.15C19.58 16.89 19.71 15.53 19.83 14.22C19.83 13.8 19.89 13.37 19.92 12.94L19.94 12.86Z" fill="white"/>
</g>
<defs>
<clipPath id="clip0_343_6532">
<rect width="36" height="36" fill="white"/>
</clipPath>
</defs>
</svg>
