<svg width="16" height="11" viewBox="0 0 16 11" fill="none" xmlns="http://www.w3.org/2000/svg">
<path d="M14.3623 5.11336C14.565 5.39758 14.6663 5.53968 14.6663 5.75004C14.6663 5.9604 14.565 6.1025 14.3623 6.38672C13.4516 7.66375 11.1258 10.4167 7.99967 10.4167C4.87353 10.4167 2.54774 7.66375 1.63704 6.38672C1.43435 6.1025 1.33301 5.9604 1.33301 5.75004C1.33301 5.53968 1.43435 5.39758 1.63703 5.11336C2.54774 3.83634 4.87353 1.08337 7.99967 1.08337C11.1258 1.08337 13.4516 3.83633 14.3623 5.11336Z" stroke="#A4A7AD"/>
<path d="M10 5.75C10 4.64543 9.10457 3.75 8 3.75C6.89543 3.75 6 4.64543 6 5.75C6 6.85457 6.89543 7.75 8 7.75C9.10457 7.75 10 6.85457 10 5.75Z" stroke="#A4A7AD"/>
</svg>
