<svg width="543" height="423" viewBox="0 0 543 423" fill="none" xmlns="http://www.w3.org/2000/svg">
<g id="No Chat History">
<path id="Fill 1" fill-rule="evenodd" clip-rule="evenodd" d="M293.847 0C244.467 0 199.082 17.1169 163.245 45.755H105.327C97.802 45.755 91.6453 51.9319 91.6453 59.4815C91.6453 67.0311 97.802 73.208 105.327 73.208H134.803H143.441C150.966 73.208 157.122 79.3849 157.122 86.9345C157.122 90.7047 155.581 94.1455 153.1 96.6254C150.628 99.1145 147.199 100.661 143.441 100.661H125.013H114.837H65.1943C57.6694 100.661 51.5127 106.838 51.5127 114.387C51.5127 121.937 57.6694 128.114 65.1943 128.114H100.733C90.0053 153.409 84.0629 181.242 84.0629 210.473C84.0629 221.079 84.8473 231.502 86.3523 241.687C86.9817 245.942 87.7387 250.161 88.6235 254.334C114.436 250.371 141.817 247.187 170.403 244.862L172.555 246.83L174.58 244.533C208.921 241.852 244.967 240.424 282.144 240.424C361.133 240.424 435.05 246.867 498.249 258.067C500.685 247.47 502.326 236.572 503.102 225.426C503.457 220.484 503.631 215.497 503.631 210.473C503.631 94.2278 409.711 0 293.847 0Z" fill="#F1F2F7"/>
<path id="Fill 3" fill-rule="evenodd" clip-rule="evenodd" d="M23.6504 100.026H15.359C7.73655 100.026 1.5 106.328 1.5 114.03C1.5 121.732 7.73655 128.033 15.359 128.033H23.6504C31.2728 128.033 37.5094 121.732 37.5094 114.03C37.5094 106.328 31.2728 100.026 23.6504 100.026Z" fill="#F1F2F7"/>
<g id="Group 7">
<mask id="mask0_67_2027" style="mask-type:luminance" maskUnits="userSpaceOnUse" x="88" y="240" width="454" height="181">
<path id="Clip 6" fill-rule="evenodd" clip-rule="evenodd" d="M541.5 240.727V420.11H314.919H88.3389V240.727H541.5Z" fill="white"/>
</mask>
<g mask="url(#mask0_67_2027)">
<path id="Fill 5" fill-rule="evenodd" clip-rule="evenodd" d="M541.5 310.081C541.5 317.583 535.345 323.721 527.822 323.721H440.453C436.696 323.721 433.268 325.258 430.797 327.731C428.317 330.196 426.775 333.615 426.775 337.361C426.775 344.863 432.93 351.001 440.453 351.001H456.685C460.442 351.001 463.871 352.538 466.342 355.011C468.823 357.476 470.364 360.895 470.364 364.641C470.364 372.143 464.209 378.281 456.685 378.281H419.362C384.299 404.542 340.73 420.11 293.513 420.11C192.668 420.11 108.446 349.137 88.3389 254.549C114.145 250.611 141.52 247.447 170.098 245.137L172.25 247.092L174.275 244.81C208.606 242.145 244.645 240.727 281.813 240.727C360.782 240.727 434.681 247.129 497.865 258.259C494.793 271.517 490.453 284.284 484.981 296.441H527.822C531.588 296.441 534.998 297.978 537.478 300.452C539.959 302.916 541.5 306.335 541.5 310.081Z" fill="#E8EBF2"/>
</g>
</g>
<path id="Fill 8" fill-rule="evenodd" clip-rule="evenodd" d="M501.63 224.804C500.856 236.162 499.216 247.269 496.784 258.067C433.668 246.653 359.849 240.089 280.966 240.089C243.838 240.089 207.84 241.543 173.544 244.275L197.328 216.718L234.326 240.862L284.409 227.033L370.568 240.089L407.972 227.033L417.445 240.089L440.047 223.312L461.168 242.671L494.479 216.056L501.63 224.804Z" fill="#E0E2EE"/>
<path id="Fill 10" fill-rule="evenodd" clip-rule="evenodd" d="M378.839 236.862C388.313 223.09 393.74 206.759 393.6 189.281C393.212 140.67 349.906 101.607 296.874 102.03C243.842 102.454 201.167 142.206 201.555 190.818C201.943 239.429 245.249 278.492 298.28 278.069C317.228 277.918 334.852 272.743 349.664 263.939L389.285 273.269L378.839 236.862Z" fill="#D8DBEA"/>
<path id="Fill 12" fill-rule="evenodd" clip-rule="evenodd" d="M269.57 187.97C269.614 193.493 265.172 198.007 259.648 198.051C254.123 198.096 249.609 193.653 249.566 188.129C249.522 182.605 253.963 178.092 259.488 178.047C265.011 178.003 269.525 182.445 269.57 187.97Z" fill="#BEC0D6"/>
<path id="Fill 14" fill-rule="evenodd" clip-rule="evenodd" d="M305.579 187.969C305.623 193.493 301.181 198.007 295.656 198.051C290.132 198.095 285.618 193.653 285.575 188.129C285.53 182.605 289.972 178.091 295.497 178.047C301.02 178.003 305.534 182.445 305.579 187.969Z" fill="#BEC0D6"/>
<path id="Fill 16" fill-rule="evenodd" clip-rule="evenodd" d="M341.588 187.969C341.632 193.492 337.189 198.006 331.665 198.051C326.14 198.095 321.626 193.653 321.583 188.128C321.538 182.604 325.981 178.091 331.505 178.047C337.029 178.002 341.543 182.445 341.588 187.969Z" fill="#BEC0D6"/>
<path id="Fill 18" fill-rule="evenodd" clip-rule="evenodd" d="M173.545 244.064L171.605 246.064L169.544 244.35C170.871 244.247 172.208 244.151 173.545 244.064Z" fill="#F1F2F7"/>
<path id="Fill 20" fill-rule="evenodd" clip-rule="evenodd" d="M191.55 258.068C191.55 264.421 193.582 270.335 197.074 275.313L193.368 288.595L207.797 285.085C213.221 288.24 219.654 290.076 226.559 290.076C245.895 290.076 261.569 275.745 261.569 258.068C261.569 240.39 245.895 226.059 226.559 226.059C207.224 226.059 191.55 240.39 191.55 258.068Z" fill="url(#paint0_linear_67_2027)"/>
<path id="Fill 22" fill-rule="evenodd" clip-rule="evenodd" d="M235.562 258.068C235.562 260.277 237.352 262.068 239.562 262.068C241.771 262.068 243.564 260.277 243.564 258.068C243.564 255.859 241.771 254.066 239.562 254.066C237.352 254.066 235.562 255.859 235.562 258.068Z" fill="white"/>
<path id="Fill 24" fill-rule="evenodd" clip-rule="evenodd" d="M223.559 258.068C223.559 260.277 225.35 262.068 227.56 262.068C229.769 262.068 231.561 260.277 231.561 258.068C231.561 255.859 229.769 254.066 227.56 254.066C225.35 254.066 223.559 255.859 223.559 258.068Z" fill="white"/>
<path id="Fill 26" fill-rule="evenodd" clip-rule="evenodd" d="M209.555 258.068C209.555 260.277 211.346 262.068 213.556 262.068C215.765 262.068 217.557 260.277 217.557 258.068C217.557 255.859 215.765 254.066 213.556 254.066C211.346 254.066 209.555 255.859 209.555 258.068Z" fill="white"/>
<path id="Fill 28" fill-rule="evenodd" clip-rule="evenodd" d="M169.544 244.58C140.968 246.908 113.596 250.098 87.7923 254.066C86.9079 249.887 86.1511 245.661 85.522 241.399L129.752 208.054L169.544 244.58Z" fill="#E0E2EE"/>
<path id="Fill 30" fill-rule="evenodd" clip-rule="evenodd" d="M369.596 313.082C369.596 316.949 334.665 320.084 291.576 320.084C248.485 320.084 213.555 316.949 213.555 313.082C213.555 309.216 248.485 306.08 291.576 306.08C334.665 306.08 369.596 309.216 369.596 313.082Z" fill="#D8DBEA"/>
<path id="Fill 32" fill-rule="evenodd" clip-rule="evenodd" d="M497.629 378.099C489.927 378.099 483.625 371.797 483.625 364.095C483.625 356.393 489.927 350.091 497.629 350.091C505.331 350.091 511.633 356.393 511.633 364.095C511.633 371.797 505.331 378.099 497.629 378.099Z" fill="#E1E3EF"/>
</g>
<defs>
<linearGradient id="paint0_linear_67_2027" x1="226.559" y1="226.059" x2="226.559" y2="290.076" gradientUnits="userSpaceOnUse">
<stop stop-color="#F6971A"/>
<stop offset="1" stop-color="#FAC157"/>
</linearGradient>
</defs>
</svg>
