<svg width="25" height="24" viewBox="0 0 25 24" fill="none" xmlns="http://www.w3.org/2000/svg">
<path d="M12.75 3C10.3159 3 8.34259 4.95716 8.34259 7.37143C8.34259 9.7857 10.3159 11.7429 12.75 11.7429C15.1841 11.7429 17.1574 9.7857 17.1574 7.37143C17.1574 4.95716 15.1841 3 12.75 3Z" fill="white"/>
<path d="M15.351 13.6877C13.6279 13.4149 11.8721 13.4149 10.149 13.6877L9.96435 13.7169C7.53647 14.1012 5.75 16.1783 5.75 18.6168C5.75 19.933 6.82576 21 8.15278 21H17.3472C18.6742 21 19.75 19.933 19.75 18.6168C19.75 16.1783 17.9635 14.1012 15.5357 13.7169L15.351 13.6877Z" fill="white"/>
</svg>
