<svg width="25" height="24" viewBox="0 0 25 24" fill="none" xmlns="http://www.w3.org/2000/svg">
<path d="M5.75 19.1115C5.75 16.6984 7.44732 14.643 9.75404 14.2627L9.96182 14.2284C11.8089 13.9239 13.6911 13.9239 15.5382 14.2284L15.746 14.2627C18.0527 14.643 19.75 16.6984 19.75 19.1115C19.75 20.1545 18.9315 21 17.9219 21H7.57813C6.56848 21 5.75 20.1545 5.75 19.1115Z" stroke="white" stroke-width="1.5"/>
<path d="M16.8334 6.9375C16.8334 9.11212 15.0052 10.875 12.75 10.875C10.4949 10.875 8.66669 9.11212 8.66669 6.9375C8.66669 4.76288 10.4949 3 12.75 3C15.0052 3 16.8334 4.76288 16.8334 6.9375Z" stroke="white" stroke-width="1.5"/>
</svg>
