<svg width="25" height="24" viewBox="0 0 25 24" fill="none" xmlns="http://www.w3.org/2000/svg">
<path d="M4.10288 14.8117L4.83229 14.6372L4.10288 14.8117ZM4.10288 8.83297L4.83229 9.00752L4.10288 8.83297ZM21.3971 8.83298L20.6677 9.00752L21.3971 8.83298ZM21.3971 14.8117L20.6677 14.6372L21.3971 14.8117ZM15.7996 20.2988L15.6315 19.5679L15.7996 20.2988ZM9.70044 20.2988L9.53237 21.0297L9.70044 20.2988ZM9.70043 3.34591L9.8685 4.07684L9.70043 3.34591ZM15.7996 3.34591L15.6315 4.07684L15.7996 3.34591ZM4.83229 14.6372C4.38924 12.7857 4.38924 10.859 4.83229 9.00752L3.37347 8.65843C2.87551 10.7394 2.87551 12.9053 3.37347 14.9863L4.83229 14.6372ZM20.6677 9.00752C21.1108 10.859 21.1108 12.7857 20.6677 14.6372L22.1265 14.9863C22.6245 12.9053 22.6245 10.7394 22.1265 8.65844L20.6677 9.00752ZM15.6315 19.5679C13.7363 20.0036 11.7637 20.0036 9.8685 19.5679L9.53237 21.0297C11.6488 21.5164 13.8512 21.5164 15.9676 21.0297L15.6315 19.5679ZM9.8685 4.07684C11.7637 3.64105 13.7363 3.64105 15.6315 4.07684L15.9676 2.61498C13.8512 2.12834 11.6488 2.12834 9.53237 2.61499L9.8685 4.07684ZM9.8685 19.5679C7.36229 18.9916 5.41599 17.0765 4.83229 14.6372L3.37347 14.9863C4.09276 17.9922 6.48374 20.3287 9.53237 21.0297L9.8685 19.5679ZM15.9676 21.0297C19.0163 20.3287 21.4072 17.9922 22.1265 14.9863L20.6677 14.6372C20.084 17.0765 18.1377 18.9916 15.6315 19.5679L15.9676 21.0297ZM15.6315 4.07684C18.1377 4.65311 20.084 6.56823 20.6677 9.00752L22.1265 8.65844C21.4072 5.65253 19.0163 3.31598 15.9676 2.61498L15.6315 4.07684ZM9.53237 2.61499C6.48373 3.31598 4.09276 5.65252 3.37347 8.65843L4.83229 9.00752C5.41599 6.56823 7.36228 4.65311 9.8685 4.07684L9.53237 2.61499ZM15.5805 21C15.5805 19.5363 15.5822 18.5154 15.6878 17.7451C15.7903 16.998 15.9778 16.5993 16.2696 16.3132L15.2196 15.242C14.5974 15.852 14.3278 16.6223 14.2018 17.5413C14.0789 18.4372 14.0805 19.5795 14.0805 21H15.5805ZM21.0722 14.1316C19.6218 14.1316 18.4601 14.13 17.5498 14.25C16.6195 14.3726 15.8397 14.6341 15.2196 15.242L16.2696 16.3132C16.5635 16.0251 16.9764 15.8385 17.7458 15.7371C18.5352 15.6331 19.5802 15.6316 21.0722 15.6316V14.1316Z" fill="white"/>
<path d="M9.75 9H12.75M9.75 12H14.75" stroke="white" stroke-width="1.5" stroke-linecap="round"/>
</svg>
