<svg width="25" height="24" viewBox="0 0 25 24" fill="none" xmlns="http://www.w3.org/2000/svg">
<path d="M3.54701 5.2338C3.77243 4.27279 4.52279 3.52243 5.4838 3.29701V3.29701C6.31663 3.10165 7.18337 3.10165 8.0162 3.29701V3.29701C8.97721 3.52243 9.72757 4.27279 9.95299 5.2338V5.2338C10.1483 6.06663 10.1483 6.93337 9.95299 7.7662V7.7662C9.72757 8.72721 8.97721 9.47757 8.0162 9.70299V9.70299C7.18337 9.89835 6.31663 9.89835 5.4838 9.70299V9.70299C4.52279 9.47757 3.77243 8.72721 3.54701 7.7662V7.7662C3.35166 6.93337 3.35166 6.06663 3.54701 5.2338V5.2338Z" stroke="white" stroke-width="1.5"/>
<path d="M3.54701 16.2338C3.77243 15.2728 4.52279 14.5224 5.4838 14.297V14.297C6.31663 14.1017 7.18337 14.1017 8.0162 14.297V14.297C8.97721 14.5224 9.72757 15.2728 9.95299 16.2338V16.2338C10.1483 17.0666 10.1483 17.9334 9.95299 18.7662V18.7662C9.72757 19.7272 8.97721 20.4776 8.0162 20.703V20.703C7.18337 20.8983 6.31663 20.8983 5.4838 20.703V20.703C4.52279 20.4776 3.77243 19.7272 3.54701 18.7662V18.7662C3.35166 17.9334 3.35166 17.0666 3.54701 16.2338V16.2338Z" stroke="white" stroke-width="1.5"/>
<path d="M14.547 5.2338C14.7724 4.27279 15.5228 3.52243 16.4838 3.29701V3.29701C17.3166 3.10165 18.1834 3.10165 19.0162 3.29701V3.29701C19.9772 3.52243 20.7276 4.27279 20.953 5.2338V5.2338C21.1483 6.06663 21.1483 6.93337 20.953 7.7662V7.7662C20.7276 8.72721 19.9772 9.47757 19.0162 9.70299V9.70299C18.1834 9.89835 17.3166 9.89835 16.4838 9.70299V9.70299C15.5228 9.47757 14.7724 8.72721 14.547 7.7662V7.7662C14.3517 6.93337 14.3517 6.06663 14.547 5.2338V5.2338Z" stroke="white" stroke-width="1.5"/>
<path d="M14.547 16.2338C14.7724 15.2728 15.5228 14.5224 16.4838 14.297V14.297C17.3166 14.1017 18.1834 14.1017 19.0162 14.297V14.297C19.9772 14.5224 20.7276 15.2728 20.953 16.2338V16.2338C21.1483 17.0666 21.1483 17.9334 20.953 18.7662V18.7662C20.7276 19.7272 19.9772 20.4776 19.0162 20.703V20.703C18.1834 20.8983 17.3166 20.8983 16.4838 20.703V20.703C15.5228 20.4776 14.7724 19.7272 14.547 18.7662V18.7662C14.3517 17.9334 14.3517 17.0666 14.547 16.2338V16.2338Z" stroke="white" stroke-width="1.5"/>
</svg>
