<svg width="25" height="24" viewBox="0 0 25 24" fill="none" xmlns="http://www.w3.org/2000/svg">
<path fill-rule="evenodd" clip-rule="evenodd" d="M15.2203 3.3437C13.2666 2.88543 11.2334 2.88543 9.27975 3.3437C6.45842 4.00549 4.2555 6.20841 3.5937 9.02975C3.13543 10.9834 3.13543 13.0166 3.5937 14.9703C4.2555 17.7916 6.45842 19.9945 9.27975 20.6563C11.2334 21.1146 13.2666 21.1146 15.2203 20.6563C18.0416 19.9945 20.2445 17.7916 20.9063 14.9703C21.3646 13.0166 21.3646 10.9834 20.9063 9.02975C20.2445 6.20842 18.0416 4.00549 15.2203 3.3437ZM11.2383 8.22523C11.4726 8.45955 11.4726 8.83945 11.2383 9.07376L9.32376 10.9883C9.21124 11.1009 9.05863 11.1641 8.8995 11.1641C8.74037 11.1641 8.58775 11.1009 8.47523 10.9883L7.51795 10.031C7.28363 9.79673 7.28363 9.41683 7.51795 9.18252C7.75226 8.9482 8.13216 8.9482 8.36647 9.18252L8.8995 9.71554L10.3898 8.22523C10.6241 7.99092 11.004 7.99092 11.2383 8.22523ZM12.6073 10.0854C12.6073 9.75406 12.8759 9.48543 13.2073 9.48543H16.5578C16.8892 9.48543 17.1578 9.75406 17.1578 10.0854C17.1578 10.4168 16.8892 10.6854 16.5578 10.6854H13.2073C12.8759 10.6854 12.6073 10.4168 12.6073 10.0854ZM11.2383 13.0117C11.4726 13.246 11.4726 13.6259 11.2383 13.8602L9.32376 15.7748C9.08945 16.0091 8.70955 16.0091 8.47523 15.7748L7.51795 14.8175C7.28363 14.5832 7.28363 14.2033 7.51795 13.969C7.75226 13.7346 8.13216 13.7346 8.36647 13.969L8.8995 14.502L10.3898 13.0117C10.6241 12.7774 11.004 12.7774 11.2383 13.0117ZM12.6073 14.8719C12.6073 14.5405 12.8759 14.2719 13.2073 14.2719H16.5578C16.8892 14.2719 17.1578 14.5405 17.1578 14.8719C17.1578 15.2032 16.8892 15.4719 16.5578 15.4719H13.2073C12.8759 15.4719 12.6073 15.2032 12.6073 14.8719Z" fill="white"/>
</svg>
