<svg width="24" height="25" viewBox="0 0 24 25" fill="none" xmlns="http://www.w3.org/2000/svg">
<rect y="0.5" width="24" height="24" rx="12" fill="#1E54A2"/>
<path fill-rule="evenodd" clip-rule="evenodd" d="M12.3464 8.00716C12.6186 7.69494 13.0924 7.66249 13.4046 7.93468L17.9929 11.9347C18.1562 12.0771 18.25 12.2833 18.25 12.5C18.25 12.7168 18.1562 12.9229 17.9929 13.0653L13.4046 17.0653C13.0924 17.3375 12.6186 17.3051 12.3464 16.9929C12.0742 16.6806 12.1067 16.2069 12.4189 15.9347L15.4984 13.25H6.5C6.08579 13.25 5.75 12.9142 5.75 12.5C5.75 12.0858 6.08579 11.75 6.5 11.75H15.4984L12.4189 9.06534C12.1067 8.79315 12.0742 8.31938 12.3464 8.00716Z" fill="white"/>
</svg>
