<svg width="36" height="25" viewBox="0 0 13 24" fill="none" xmlns="http://www.w3.org/2000/svg">
<path d="M11.3238 23.7155L0.301925 12.7237C0.108342 12.5306 0 12.2717 0 12.0021C0 11.7325 0.108342 11.4735 0.301925 11.2804L11.3238 0.284491C11.414 0.194456 11.5218 0.122896 11.6409 0.0740337C11.76 0.0251713 11.888 -1.90735e-06 12.0172 -1.90735e-06C12.1465 -1.90735e-06 12.2744 0.0251713 12.3935 0.0740337C12.5126 0.122896 12.6204 0.194456 12.7106 0.284491C12.8961 0.469131 13 0.716995 13 0.9751C13 1.2332 12.8961 1.48107 12.7106 1.6657L2.34593 12.0021L12.7106 22.3364C12.8955 22.5209 12.999 22.7683 12.999 23.0259C12.999 23.2835 12.8955 23.531 12.7106 23.7155C12.6204 23.8055 12.5126 23.8771 12.3935 23.926C12.2744 23.9748 12.1465 24 12.0172 24C11.888 24 11.76 23.9748 11.6409 23.926C11.5218 23.8771 11.414 23.8055 11.3238 23.7155Z" fill="white"/>
</svg>
