<svg width="16" height="17" viewBox="0 0 16 17" fill="none" xmlns="http://www.w3.org/2000/svg">
<path fill-rule="evenodd" clip-rule="evenodd" d="M6.04115 2.96388C6.04115 2.70769 5.83876 2.5 5.5891 2.5C5.33944 2.5 5.13705 2.70769 5.13705 2.96388V3.45267C4.06906 3.98209 3.22466 4.90226 2.77588 6.03653C2.68306 6.27112 2.60719 6.5148 2.54978 6.76597C2.26124 8.02824 2.26124 9.34189 2.54978 10.6042C2.96646 12.427 4.35349 13.8503 6.12988 14.2779C7.35996 14.574 8.64012 14.574 9.8702 14.2779C11.6466 13.8503 13.0336 12.427 13.4503 10.6042C13.7388 9.34189 13.7388 8.02824 13.4503 6.76597C13.3929 6.5148 13.317 6.27112 13.2242 6.03653C12.7754 4.90226 11.931 3.98209 10.863 3.45267V2.96388C10.863 2.70769 10.6606 2.5 10.411 2.5C10.1613 2.5 9.95893 2.70769 9.95893 2.96388V3.11446C9.92947 3.10676 9.89989 3.09934 9.8702 3.09219C8.64012 2.79611 7.35996 2.79611 6.12988 3.09219C6.10019 3.09934 6.07062 3.10676 6.04115 3.11446V2.96388ZM3.93405 5.74716C4.24158 5.2501 4.65267 4.82827 5.13705 4.5127C5.13839 4.76772 5.34027 4.97403 5.5891 4.97403C5.83876 4.97403 6.04115 4.76634 6.04115 4.51015V4.07912C6.13793 4.04745 6.23638 4.0195 6.33635 3.99544C7.43063 3.73204 8.56946 3.73204 9.66373 3.99544C9.7637 4.0195 9.86215 4.04745 9.95893 4.07912V4.51015C9.95893 4.76634 10.1613 4.97403 10.411 4.97403C10.6598 4.97403 10.8617 4.76772 10.863 4.5127C11.3474 4.82827 11.7585 5.2501 12.066 5.74716H3.93405ZM5.33337 9.16667C5.70156 9.16667 6.00004 8.86819 6.00004 8.5C6.00004 8.13181 5.70156 7.83333 5.33337 7.83333C4.96518 7.83333 4.66671 8.13181 4.66671 8.5C4.66671 8.86819 4.96518 9.16667 5.33337 9.16667ZM6.00004 11.1667C6.00004 11.5349 5.70156 11.8333 5.33337 11.8333C4.96518 11.8333 4.66671 11.5349 4.66671 11.1667C4.66671 10.7985 4.96518 10.5 5.33337 10.5C5.70156 10.5 6.00004 10.7985 6.00004 11.1667ZM8.00004 9.16667C8.36823 9.16667 8.66671 8.86819 8.66671 8.5C8.66671 8.13181 8.36823 7.83333 8.00004 7.83333C7.63185 7.83333 7.33337 8.13181 7.33337 8.5C7.33337 8.86819 7.63185 9.16667 8.00004 9.16667ZM8.66671 11.1667C8.66671 11.5349 8.36823 11.8333 8.00004 11.8333C7.63185 11.8333 7.33337 11.5349 7.33337 11.1667C7.33337 10.7985 7.63185 10.5 8.00004 10.5C8.36823 10.5 8.66671 10.7985 8.66671 11.1667ZM10.6667 9.16667C11.0349 9.16667 11.3334 8.86819 11.3334 8.5C11.3334 8.13181 11.0349 7.83333 10.6667 7.83333C10.2985 7.83333 10 8.13181 10 8.5C10 8.86819 10.2985 9.16667 10.6667 9.16667Z" fill="#A4A7AD"/>
</svg>
