<svg width="17" height="16" viewBox="0 0 17 16" fill="none" xmlns="http://www.w3.org/2000/svg">
<rect x="1" y="0.5" width="15" height="15" rx="3.5" fill="#1E54A2" stroke="#1E54A2"/>
<path d="M4.41308 7.03516H4.41326C4.49256 7.03525 4.57081 7.05331 4.64213 7.08798C4.71341 7.12262 4.77591 7.17295 4.82497 7.2352L4.41308 7.03516ZM4.41308 7.03516H3.59394C3.39031 7.03516 3.2766 7.26975 3.40232 7.4292L3.40237 7.42927L6.61214 11.4957L6.61218 11.4957C6.82247 11.7619 7.22568 11.7611 7.43667 11.4962L7.43708 11.4957L13.1597 4.24398C13.1598 4.24378 13.16 4.24358 13.1602 4.24338C13.2884 4.08295 13.1699 3.85 12.9689 3.85H12.1498C11.9894 3.85 11.8367 3.9235 11.7376 4.05044C11.7375 4.05055 11.7374 4.05066 11.7373 4.05077L7.02403 10.0216M4.41308 7.03516L7.02403 10.0216M7.02403 10.0216L4.82506 7.23531L7.02403 10.0216Z" fill="white" stroke="white" stroke-width="0.3"/>
</svg>
