<svg width="79" height="79" viewBox="0 0 79 79" fill="none" xmlns="http://www.w3.org/2000/svg">
<path fill-rule="evenodd" clip-rule="evenodd" d="M29.8467 11.367C36.1961 9.87766 42.8039 9.87766 49.1533 11.367C58.3227 13.5179 65.4822 20.6773 67.633 29.8467C69.1223 36.1961 69.1223 42.8039 67.633 49.1533C65.4821 58.3227 58.3227 65.4822 49.1533 67.633C42.8039 69.1223 36.1961 69.1223 29.8467 67.633C20.6774 65.4821 13.5179 58.3227 11.367 49.1533C9.87766 42.8039 9.87766 36.1961 11.367 29.8467C13.5179 20.6773 20.6773 13.5179 29.8467 11.367ZM39.4999 33.2776C41.2182 33.2776 42.6111 31.8846 42.6111 30.1664C42.6111 28.4481 41.2182 27.0552 39.4999 27.0552C37.7817 27.0552 36.3887 28.4481 36.3887 30.1664C36.3887 31.8846 37.7817 33.2776 39.4999 33.2776ZM39.4999 35.6109C40.7886 35.6109 41.8333 36.6556 41.8333 37.9443V50.389C41.8333 51.6777 40.7886 52.7224 39.4999 52.7224C38.2112 52.7224 37.1665 51.6777 37.1665 50.389V37.9443C37.1665 36.6556 38.2112 35.6109 39.4999 35.6109Z" fill="#1E54A2"/>
</svg>
