<svg width="25" height="25" viewBox="0 0 25 25" fill="none" xmlns="http://www.w3.org/2000/svg">
<circle cx="12.5" cy="12.5" r="10" fill="white"/>
<path fill-rule="evenodd" clip-rule="evenodd" d="M12.5 22.5C18.0228 22.5 22.5 18.0228 22.5 12.5C22.5 6.97715 18.0228 2.5 12.5 2.5C6.97715 2.5 2.5 6.97715 2.5 12.5C2.5 18.0228 6.97715 22.5 12.5 22.5ZM17.0529 10.0068C17.3328 9.70146 17.3121 9.22703 17.0068 8.94714C16.7015 8.66724 16.227 8.68787 15.9471 8.99321L11 14.3901L9.05287 12.2659C8.77298 11.9606 8.29855 11.94 7.99321 12.2199C7.68787 12.4998 7.66724 12.9742 7.94714 13.2795L10.4471 16.0068C10.5892 16.1618 10.7898 16.25 11 16.25C11.2102 16.25 11.4108 16.1618 11.5529 16.0068L17.0529 10.0068Z" fill="#4FBF67"/>
</svg>
