<svg width="34" height="41" viewBox="0 0 34 41" fill="none" xmlns="http://www.w3.org/2000/svg">
<path d="M33.0011 22.3863C31.9933 21.7145 30.7788 21.3268 29.4868 21.3268C28.0656 21.3268 26.7736 21.792 25.7141 22.5672C20.5977 12.1535 11.3211 4.19472 0.0546875 0.938843C3.54313 2.79935 6.61813 5.35754 9.12464 8.40669C16.2307 14.6342 21.2437 23.2132 22.9492 32.955C24.3187 30.9653 25.74 28.7947 27.5229 26.8308C29.0217 25.1254 30.7788 23.575 33.0011 22.3863Z" fill="#68C297"/>
<path d="M9.125 8.40662C13.3887 13.6005 15.921 20.2673 15.921 27.5284C15.921 31.9988 14.9391 36.2625 13.2078 40.061C15.0424 40.0352 16.5412 39.5183 17.859 38.6398C18.0916 36.9085 18.2208 35.1255 18.2208 33.2908C18.2208 23.8074 14.8099 15.1251 9.17668 8.43246C9.17668 8.43246 9.15084 8.40662 9.125 8.40662Z" fill="#68C297"/>
<path d="M9.125 8.40662C9.125 8.40662 9.15084 8.40662 9.125 8.40662C15.12 15.306 18.7376 24.3243 18.7376 34.1694C18.7376 35.5131 18.6601 36.8568 18.5309 38.1747C20.0038 37.0118 21.2441 35.3839 22.4844 33.6009C21.1149 23.6266 16.2052 14.7892 9.125 8.40662Z" fill="#68C297"/>
</svg>
