<svg width="41" height="41" viewBox="0 0 41 41" fill="none" xmlns="http://www.w3.org/2000/svg">
<path opacity="0.4" d="M20.3202 0.497342C20.3202 0.222668 20.5429 -0.000644298 20.8175 0.00616948C24.6077 0.10022 28.2973 1.26769 31.4553 3.37782C34.7514 5.58016 37.3203 8.71042 38.8373 12.3728C40.3543 16.0351 40.7512 20.065 39.9779 23.953C39.2045 27.8409 37.2956 31.4122 34.4926 34.2152C31.6895 37.0183 28.1182 38.9272 24.2303 39.7005C20.3424 40.4739 16.3125 40.077 12.6501 38.56C8.98776 37.043 5.8575 34.474 3.65517 31.178C1.54503 28.02 0.377564 24.3303 0.283513 20.5402C0.276699 20.2656 0.500011 20.0428 0.774686 20.0428C1.04936 20.0428 1.27135 20.2656 1.27852 20.5402C1.37235 24.1336 2.48138 27.6309 4.48222 30.6254C6.57525 33.7578 9.55016 36.1993 13.0308 37.641C16.5113 39.0827 20.3413 39.4599 24.0363 38.7249C27.7312 37.99 31.1253 36.1758 33.7892 33.5119C36.4531 30.8479 38.2673 27.4539 39.0023 23.7589C39.7373 20.0639 39.36 16.234 37.9183 12.7534C36.4766 9.27282 34.0352 6.29791 30.9027 4.20487C27.9083 2.20404 24.4109 1.095 20.8175 1.00118C20.5429 0.994006 20.3202 0.772017 20.3202 0.497342Z" fill="white"/>
<path d="M20.3202 0.497342C20.3202 0.222668 20.5429 -0.000644646 20.8175 0.0061701C23.721 0.0782304 26.5764 0.780601 29.1849 2.06696C31.9421 3.4267 34.3497 5.4025 36.2212 7.84152C38.0927 10.2805 39.3781 13.1174 39.9779 16.1327C40.5776 19.1479 40.4757 22.2607 39.68 25.2303C38.8843 28.1998 37.4162 30.9466 35.3891 33.258C33.3621 35.5694 30.8305 37.3835 27.9902 38.56C25.1499 39.7365 22.077 40.2438 19.0093 40.0427C16.1071 39.8525 13.2831 39.0331 10.7325 37.6437C10.4913 37.5123 10.4101 37.2076 10.5474 36.9697C10.6848 36.7318 10.9886 36.6509 11.23 36.782C13.6483 38.0953 16.3244 38.8699 19.0743 39.0502C21.9898 39.2413 24.9102 38.7591 27.6096 37.641C30.3089 36.5229 32.7149 34.7988 34.6413 32.6021C36.5677 30.4054 37.963 27.795 38.7192 24.9728C39.4754 22.1506 39.5723 19.1923 39.0023 16.3267C38.4323 13.4611 37.2107 10.765 35.4321 8.44705C33.6534 6.12907 31.3654 4.25132 28.7449 2.95907C26.2733 1.74019 23.5684 1.07302 20.8175 1.00118C20.5429 0.994006 20.3202 0.772017 20.3202 0.497342Z" fill="white"/>
<g clip-path="url(#clip0_1379_82119)">
<path d="M20 8.19727C13.4096 8.19727 8 13.6062 8 20.1973V25.8223C8 26.9854 8.94622 27.9316 10.1094 27.9316H11.5625C11.9511 27.9316 12.2656 27.6172 12.2656 27.2285V18.791C12.2656 18.4024 11.9511 18.0879 11.5625 18.0879H10.1094C9.93598 18.0879 9.76991 18.1148 9.60866 18.1545C10.563 13.3136 14.8832 9.60352 20 9.60352C25.1168 9.60352 29.437 13.3136 30.3913 18.1545C30.2301 18.1148 30.064 18.0879 29.8906 18.0879H28.4375C28.0489 18.0879 27.7344 18.4024 27.7344 18.791V27.2285C27.7344 27.6172 28.0489 27.9316 28.4375 27.9316H29.1164C28.7898 29.5343 27.3232 30.791 25.625 30.791H20C19.6114 30.791 19.2969 31.1055 19.2969 31.4941C19.2969 31.8828 19.6114 32.1973 20 32.1973H25.625C28.1358 32.1973 30.2372 30.2528 30.5338 27.8207C31.3812 27.5468 32 26.7597 32 25.8223V20.1973C32 13.6062 26.5904 8.19727 20 8.19727Z" fill="white"/>
<path d="M20 27.9316C23.4895 27.9316 26.3281 25.093 26.3281 21.6035C26.3281 18.114 23.4895 15.2754 20 15.2754C16.5105 15.2754 13.6719 18.114 13.6719 21.6035C13.6719 25.093 16.5105 27.9316 20 27.9316ZM20 18.0879C20.3883 18.0879 20.7031 18.4026 20.7031 18.791C20.7031 19.1793 20.3883 19.4941 20 19.4941C19.6117 19.4941 19.2969 19.1793 19.2969 18.791C19.2969 18.4026 19.6117 18.0879 20 18.0879ZM19.2969 21.6035C19.2969 21.2149 19.6114 20.9004 20 20.9004C20.3886 20.9004 20.7031 21.2149 20.7031 21.6035V24.416C20.7031 24.8047 20.3886 25.1191 20 25.1191C19.6114 25.1191 19.2969 24.8047 19.2969 24.416V21.6035Z" fill="white"/>
</g>
<defs>
<clipPath id="clip0_1379_82119">
<rect width="24" height="24" fill="white" transform="translate(8 8.19727)"/>
</clipPath>
</defs>
</svg>
