<svg width="540" height="540" viewBox="0 0 540 540" fill="none" xmlns="http://www.w3.org/2000/svg">
<g id="No Upcoming Trips">
<g id="Group 3">
<mask id="mask0_206_8744" style="mask-type:luminance" maskUnits="userSpaceOnUse" x="50" y="117" width="453" height="259">
<path id="Clip 2" fill-rule="evenodd" clip-rule="evenodd" d="M161.746 163.286H103.827C96.3007 163.286 90.1451 169.462 90.1451 177.012C90.1451 184.562 96.3007 190.737 103.827 190.737H133.302H141.941C149.466 190.737 155.622 196.915 155.622 204.465C155.622 208.238 154.08 211.677 151.599 214.155C149.128 216.646 145.7 218.192 141.941 218.192H123.512H113.337H63.6942C56.1683 218.192 50.0127 224.37 50.0127 231.918C50.0127 239.466 56.1683 245.643 63.6942 245.643H99.2335C88.5047 270.94 82.5631 298.773 82.5631 328.005C82.5631 338.61 83.3473 349.032 84.8517 359.217C85.4799 363.472 86.2381 367.691 87.1243 371.864C112.937 367.903 140.318 364.716 168.904 362.392L171.054 364.36L173.079 362.064C207.422 359.383 243.467 357.955 280.645 357.955C359.633 357.955 433.548 364.396 496.747 375.597C499.183 365.002 500.826 354.102 501.602 342.957C501.956 338.015 502.13 333.028 502.13 328.005C502.13 211.759 408.212 117.53 292.348 117.53C242.967 117.53 197.581 134.649 161.746 163.286Z" fill="white"/>
</mask>
<g mask="url(#mask0_206_8744)">
<path id="Fill 1" fill-rule="evenodd" clip-rule="evenodd" d="M40.0107 385.599H512.133V107.527H40.0107V385.599Z" fill="#F1F2F7"/>
</g>
</g>
<g id="Group 6">
<mask id="mask1_206_8744" style="mask-type:luminance" maskUnits="userSpaceOnUse" x="0" y="217" width="37" height="29">
<path id="Clip 5" fill-rule="evenodd" clip-rule="evenodd" d="M13.8576 217.556C6.23562 217.556 0 223.859 0 231.559C0 239.259 6.23562 245.563 13.8576 245.563H22.1497C29.7737 245.563 36.0093 239.259 36.0093 231.559C36.0093 223.859 29.7737 217.556 22.1497 217.556H13.8576Z" fill="white"/>
</mask>
<g mask="url(#mask1_206_8744)">
<path id="Fill 4" fill-rule="evenodd" clip-rule="evenodd" d="M-10.002 255.566H46.0126V207.554H-10.002V255.566Z" fill="#F1F2F7"/>
</g>
</g>
<g id="Group 9">
<mask id="mask2_206_8744" style="mask-type:luminance" maskUnits="userSpaceOnUse" x="86" y="358" width="454" height="180">
<path id="Clip 8" fill-rule="evenodd" clip-rule="evenodd" d="M172.775 362.34L170.749 364.622L168.598 362.666C140.021 364.977 112.648 368.139 86.8389 372.078C106.946 466.667 191.168 537.639 292.012 537.639C339.23 537.639 382.8 522.071 417.863 495.811H455.186C462.708 495.811 468.864 489.671 468.864 482.171C468.864 478.426 467.322 475.005 464.843 472.542C462.37 470.068 458.941 468.531 455.186 468.531H438.954C431.43 468.531 425.275 462.394 425.275 454.892C425.275 451.145 426.817 447.726 429.296 445.261C431.768 442.787 435.197 441.252 438.954 441.252H526.323C533.847 441.252 540 435.115 540 427.611C540 423.864 538.458 420.445 535.979 417.982C533.499 415.508 530.086 413.971 526.323 413.971H483.482C488.953 401.814 493.294 389.047 496.365 375.789C433.181 364.66 359.283 358.257 280.313 358.257C243.145 358.257 207.106 359.675 172.775 362.34Z" fill="white"/>
</mask>
<g mask="url(#mask2_206_8744)">
<path id="Fill 7" fill-rule="evenodd" clip-rule="evenodd" d="M76.8369 547.641H550.002V348.253H76.8369V547.641Z" fill="#E8EBF2"/>
</g>
</g>
<g id="Group 12">
<mask id="mask3_206_8744" style="mask-type:luminance" maskUnits="userSpaceOnUse" x="172" y="333" width="329" height="43">
<path id="Clip 11" fill-rule="evenodd" clip-rule="evenodd" d="M459.669 360.201L438.547 340.842L415.945 357.618L406.471 344.565L369.069 357.618L282.909 344.565L232.826 358.392C248.14 357.88 263.7 357.618 279.466 357.618C358.348 357.618 432.168 364.182 495.284 375.597C497.713 364.798 499.355 353.691 500.129 342.334L492.979 333.586L459.669 360.201ZM172.044 361.805C191.778 360.233 212.073 359.085 232.826 358.392L195.829 334.25L172.044 361.805Z" fill="white"/>
</mask>
<g mask="url(#mask3_206_8744)">
<path id="Fill 10" fill-rule="evenodd" clip-rule="evenodd" d="M162.042 385.6H510.133V323.584H162.042V385.6Z" fill="#E0E2EE"/>
</g>
</g>
<g id="Group 15">
<mask id="mask4_206_8744" style="mask-type:luminance" maskUnits="userSpaceOnUse" x="168" y="361" width="5" height="3">
<path id="Clip 14" fill-rule="evenodd" clip-rule="evenodd" d="M168.044 361.882L170.104 363.596L172.045 361.594C170.709 361.682 169.37 361.778 168.044 361.882Z" fill="white"/>
</mask>
<g mask="url(#mask4_206_8744)">
<path id="Fill 13" fill-rule="evenodd" clip-rule="evenodd" d="M158.041 373.596H182.047V351.59H158.041V373.596Z" fill="#F1F2F7"/>
</g>
</g>
<g id="Group 18">
<mask id="mask5_206_8744" style="mask-type:luminance" maskUnits="userSpaceOnUse" x="84" y="325" width="85" height="47">
<path id="Clip 17" fill-rule="evenodd" clip-rule="evenodd" d="M84.022 358.928C84.6501 363.191 85.4083 367.416 86.2906 371.595C112.095 367.628 139.468 364.438 168.044 362.109L128.251 325.583L84.022 358.928Z" fill="white"/>
</mask>
<g mask="url(#mask5_206_8744)">
<path id="Fill 16" fill-rule="evenodd" clip-rule="evenodd" d="M74.0186 381.599H178.046V315.582H74.0186V381.599Z" fill="#E0E2EE"/>
</g>
</g>
<g id="Group 21">
<mask id="mask6_206_8744" style="mask-type:luminance" maskUnits="userSpaceOnUse" x="217" y="437" width="157" height="15">
<path id="Clip 20" fill-rule="evenodd" clip-rule="evenodd" d="M217.49 444.05C217.49 447.915 252.421 451.051 295.512 451.051C338.601 451.051 373.532 447.915 373.532 444.05C373.532 440.185 338.601 437.048 295.512 437.048C252.421 437.048 217.49 440.185 217.49 444.05Z" fill="white"/>
</mask>
<g mask="url(#mask6_206_8744)">
<path id="Fill 19" fill-rule="evenodd" clip-rule="evenodd" d="M207.489 461.055H383.535V427.046H207.489V461.055Z" fill="#D8DBEA"/>
</g>
</g>
<g id="Group 24">
<mask id="mask7_206_8744" style="mask-type:luminance" maskUnits="userSpaceOnUse" x="482" y="467" width="29" height="29">
<path id="Clip 23" fill-rule="evenodd" clip-rule="evenodd" d="M482.125 481.624C482.125 489.326 488.427 495.628 496.129 495.628C503.831 495.628 510.133 489.326 510.133 481.624C510.133 473.924 503.831 467.621 496.129 467.621C488.427 467.621 482.125 473.924 482.125 481.624Z" fill="white"/>
</mask>
<g mask="url(#mask7_206_8744)">
<path id="Fill 22" fill-rule="evenodd" clip-rule="evenodd" d="M472.122 505.631H520.135V457.619H472.122V505.631Z" fill="#E1E3EF"/>
</g>
</g>
<g id="Group 47">
<path id="Fill 25" fill-rule="evenodd" clip-rule="evenodd" d="M293.449 274.035C286.935 274.035 281.654 268.754 281.654 262.24C281.654 255.729 286.935 250.449 293.449 250.449C299.963 250.449 305.244 255.729 305.244 262.24C305.244 268.754 299.963 274.035 293.449 274.035ZM293.449 245.565C284.238 245.565 276.771 253.031 276.771 262.241C276.771 271.456 284.238 278.922 293.449 278.922C302.659 278.922 310.129 271.456 310.129 262.241C310.129 253.031 302.659 245.565 293.449 245.565Z" fill="#D8DBEA"/>
<path id="Fill 27" fill-rule="evenodd" clip-rule="evenodd" d="M338.649 418.609H248.248C239.245 418.609 231.943 411.311 231.943 402.307V319.173C231.943 286.715 258.502 260.158 290.959 260.158H295.936C328.396 260.158 354.951 286.715 354.951 319.173V402.307C354.951 411.311 347.653 418.609 338.649 418.609Z" fill="#D8DBEA"/>
<path id="Fill 29" fill-rule="evenodd" clip-rule="evenodd" d="M362.362 398.803H361.477C357.888 398.803 354.954 395.866 354.954 392.28V345.907C354.954 342.319 357.888 339.384 361.477 339.384H370.322C373.909 339.384 376.843 342.319 376.843 345.907V384.319C376.843 392.286 370.326 398.803 362.362 398.803Z" fill="url(#paint0_linear_206_8744)"/>
<path id="Fill 31" fill-rule="evenodd" clip-rule="evenodd" d="M225.424 398.803H224.54C216.572 398.803 210.054 392.286 210.054 384.319V345.907C210.054 342.319 212.989 339.384 216.578 339.384H225.424C229.011 339.384 231.946 342.319 231.946 345.907V392.28C231.946 395.866 229.011 398.803 225.424 398.803Z" fill="url(#paint1_linear_206_8744)"/>
<path id="Fill 33" fill-rule="evenodd" clip-rule="evenodd" d="M332.019 396.17L292.407 408.705L252.792 396.17V369.091H332.019V396.17Z" fill="#BEC0D6"/>
<path id="Fill 35" fill-rule="evenodd" clip-rule="evenodd" d="M268.821 403.377L266.963 405.229C265.418 406.767 262.918 406.767 261.371 405.229L259.515 403.377V386.058H268.821V403.377Z" fill="url(#paint2_linear_206_8744)"/>
<path id="Fill 37" fill-rule="evenodd" clip-rule="evenodd" d="M266.049 400.328C266.049 401.369 265.207 402.209 264.169 402.209C263.128 402.209 262.286 401.369 262.286 400.328C262.286 399.288 263.128 398.448 264.169 398.448C265.207 398.448 266.049 399.288 266.049 400.328Z" fill="#F7FFF6"/>
<path id="Fill 39" fill-rule="evenodd" clip-rule="evenodd" d="M321.985 403.377L320.126 405.229C318.582 406.767 316.081 406.767 314.535 405.229L312.678 403.377V386.058H321.985V403.377Z" fill="url(#paint3_linear_206_8744)"/>
<path id="Fill 41" fill-rule="evenodd" clip-rule="evenodd" d="M319.213 400.328C319.213 401.369 318.37 402.209 317.332 402.209C316.292 402.209 315.45 401.369 315.45 400.328C315.45 399.288 316.292 398.448 317.332 398.448C318.37 398.448 319.213 399.288 319.213 400.328Z" fill="#F7FFF6"/>
<path id="Fill 43" fill-rule="evenodd" clip-rule="evenodd" d="M349.045 322.224V331.043V349.349L244.622 299.336C251.563 281.592 268.91 268.958 289.029 268.958H297.869C324.096 268.958 349.045 295.976 349.045 322.224Z" fill="white"/>
<path id="Fill 45" fill-rule="evenodd" clip-rule="evenodd" d="M244.622 326.834V318.015V299.708L349.045 349.723C342.105 367.466 324.758 380.099 304.637 380.099H295.799C269.57 380.099 244.622 353.082 244.622 326.834Z" fill="url(#paint4_linear_206_8744)"/>
</g>
<g id="Bee">
<path id="Stroke 3" d="M327.043 85.522C257.745 91.3883 232.275 150.045 253.14 184.237C267.863 208.36 292.812 240.963 339.317 233.143C385.821 225.321 389.739 182.282 365.248 176.428C340.756 170.576 253.504 197.879 263.365 260.954C270.483 306.464 332.181 319.583 332.181 319.583" stroke="#D7DAE9" stroke-width="2" stroke-dasharray="7"/>
<path id="Fill 5" fill-rule="evenodd" clip-rule="evenodd" d="M367.097 49.5125C367.097 49.5125 377.027 23.5729 378.074 13.4821C378.624 8.20938 369.887 -6.47108 359.66 7.10835C349.434 20.6878 354.099 37.3379 367.097 49.5125Z" fill="#D8DBEA"/>
<path id="Fill 7_2" fill-rule="evenodd" clip-rule="evenodd" d="M331.86 21.2622C320.227 17.3282 314.961 20.3955 312.718 26.5177C310.472 32.6419 313.606 44.299 331.152 46.9563C348.699 49.6136 366.095 49.5117 366.095 49.5117C366.095 49.5117 343.493 25.1962 331.86 21.2622Z" fill="#D8DBEA"/>
<path id="Fill 9" fill-rule="evenodd" clip-rule="evenodd" d="M365.126 54.6519C365.39 53.5676 365.74 52.5284 366.129 51.5127C363.981 51.8519 361.796 52.3284 359.597 52.9735C357.211 53.6715 354.984 54.5872 352.89 55.6362C351.981 57.3539 351.245 59.1892 350.766 61.1598C347.819 73.2912 354.778 85.5186 366.47 89.5225C367.737 89.2716 369.009 88.9814 370.283 88.6088C373.844 87.5657 377.129 86.1853 380.098 84.5853C368.679 79.5755 362.108 67.0735 365.126 54.6519Z" fill="#D8DBEA"/>
<path id="Fill 11" fill-rule="evenodd" clip-rule="evenodd" d="M348.433 60.9784C348.712 59.7799 349.091 58.6339 349.511 57.5142C339.395 63.9947 333.731 74.0525 334.665 79.9177C328.201 82.696 324.083 85.0364 324.083 85.0364C324.083 85.0364 328.961 84.6652 336.068 83.2992C339.874 88.8618 350.426 92.5863 362.093 91.2506C351.524 85.7849 345.558 73.3464 348.433 60.9784Z" fill="#D8DBEA"/>
<path id="Fill 13_2" fill-rule="evenodd" clip-rule="evenodd" d="M381.933 65.3767C379.253 64.7337 377.592 62.0419 378.237 59.3459C378.88 56.6686 381.589 55.0094 384.266 55.6524C386.958 56.2996 388.603 59.0017 387.962 61.6812C387.315 64.375 384.627 66.0218 381.933 65.3767ZM393.672 61.775C391.516 54.3053 381.6 50.4478 369.903 51.7688C369.414 52.9262 368.998 54.1472 368.701 55.4119C366.097 66.4993 372.113 77.6521 382.317 81.5205C390.831 76.104 395.612 68.4344 393.672 61.775Z" fill="#D8DBEA"/>
</g>
</g>
<defs>
<linearGradient id="paint0_linear_206_8744" x1="365.898" y1="339.384" x2="365.898" y2="398.803" gradientUnits="userSpaceOnUse">
<stop stop-color="#F6971A"/>
<stop offset="1" stop-color="#FAC157"/>
</linearGradient>
<linearGradient id="paint1_linear_206_8744" x1="221" y1="339.384" x2="221" y2="398.803" gradientUnits="userSpaceOnUse">
<stop stop-color="#F6971A"/>
<stop offset="1" stop-color="#FAC157"/>
</linearGradient>
<linearGradient id="paint2_linear_206_8744" x1="264.168" y1="386.058" x2="264.168" y2="406.383" gradientUnits="userSpaceOnUse">
<stop stop-color="#F6971A"/>
<stop offset="1" stop-color="#FAC157"/>
</linearGradient>
<linearGradient id="paint3_linear_206_8744" x1="317.331" y1="386.058" x2="317.331" y2="406.383" gradientUnits="userSpaceOnUse">
<stop stop-color="#F6971A"/>
<stop offset="1" stop-color="#FAC157"/>
</linearGradient>
<linearGradient id="paint4_linear_206_8744" x1="296.833" y1="299.708" x2="296.833" y2="380.099" gradientUnits="userSpaceOnUse">
<stop stop-color="#F6971A"/>
<stop offset="1" stop-color="#FAC157"/>
</linearGradient>
</defs>
</svg>
