<svg width="24" height="24" viewBox="0 0 24 24" fill="none" xmlns="http://www.w3.org/2000/svg">
<path fill-rule="evenodd" clip-rule="evenodd" d="M9.31745 3.32481C6.34246 3.99738 4.00813 6.28371 3.29193 9.22642C2.90031 10.8355 2.90389 12.5287 3.29551 14.1378C4.0229 17.1265 6.16258 19.6138 9.03293 20.7728L9.15805 20.8233C10.4002 21.3249 11.8231 20.7208 12.3327 19.4902C12.473 19.1515 12.807 18.9268 13.1761 18.9268H14.2999C17.3564 18.9268 20.0154 16.8499 20.7328 13.9021C21.0891 12.4382 21.0891 10.9113 20.7328 9.44741L20.6387 9.06088C19.9472 6.21958 17.6933 4.01204 14.8209 3.36264L14.4173 3.27141C12.8166 2.90953 11.1543 2.90953 9.55362 3.27141L9.31745 3.32481ZM12 6C12.5523 6 13 6.44772 13 7V11C13 11.5523 12.5523 12 12 12C11.4477 12 11 11.5523 11 11V7C11 6.44772 11.4477 6 12 6ZM13 14C13 13.4477 12.5523 13 12 13C11.4477 13 11 13.4477 11 14V15C11 15.5523 11.4477 16 12 16C12.5523 16 13 15.5523 13 15V14Z" fill="#1E54A2"/>
</svg>
