<svg width="24" height="25" viewBox="0 0 24 25" fill="none" xmlns="http://www.w3.org/2000/svg">
<path fill-rule="evenodd" clip-rule="evenodd" d="M3 5C3.41421 5 3.75 5.33579 3.75 5.75V8H6C6.41421 8 6.75 8.33579 6.75 8.75C6.75 9.16421 6.41421 9.5 6 9.5H3C2.58579 9.5 2.25 9.16421 2.25 8.75V5.75C2.25 5.33579 2.58579 5 3 5Z" fill="white"/>
<path fill-rule="evenodd" clip-rule="evenodd" d="M3.1444 8.43678C4.68462 5.08574 8.06481 2.75 11.9999 2.75C17.3851 2.75 21.7499 7.11479 21.7499 12.5C21.7499 12.9142 21.4141 13.25 20.9999 13.25C20.5857 13.25 20.2499 12.9142 20.2499 12.5C20.2499 7.94321 16.5567 4.25 11.9999 4.25C8.67492 4.25 5.81311 6.22226 4.50733 9.06322C4.33434 9.43958 3.88901 9.60445 3.51265 9.43146C3.13628 9.25848 2.97141 8.81314 3.1444 8.43678Z" fill="white"/>
<path fill-rule="evenodd" clip-rule="evenodd" d="M17.25 16.25C17.25 15.8358 17.5858 15.5 18 15.5H21C21.4142 15.5 21.75 15.8358 21.75 16.25V19.25C21.75 19.6642 21.4142 20 21 20C20.5858 20 20.25 19.6642 20.25 19.25V17H18C17.5858 17 17.25 16.6642 17.25 16.25Z" fill="white"/>
<path fill-rule="evenodd" clip-rule="evenodd" d="M3 11.75C3.41421 11.75 3.75 12.0858 3.75 12.5C3.75 17.0568 7.44321 20.75 12 20.75C15.3249 20.75 18.1868 18.7777 19.4925 15.9368C19.6655 15.5604 20.1109 15.3955 20.4872 15.5685C20.8636 15.7415 21.0285 16.1869 20.8555 16.5632C19.3152 19.9143 15.9351 22.25 12 22.25C6.61479 22.25 2.25 17.8852 2.25 12.5C2.25 12.0858 2.58579 11.75 3 11.75Z" fill="white"/>
</svg>
