<svg width="79" height="79" viewBox="0 0 79 79" fill="none" xmlns="http://www.w3.org/2000/svg">
<rect x="0.5" y="0.5" width="78" height="78" rx="39" fill="#4FBF67" fill-opacity="0.1"/>
<path fill-rule="evenodd" clip-rule="evenodd" d="M29.8467 11.367C36.1961 9.87766 42.804 9.87766 49.1533 11.367C58.3227 13.5179 65.4822 20.6774 67.633 29.8467C69.1223 36.1961 69.1223 42.8039 67.633 49.1533C65.4822 58.3227 58.3227 65.4822 49.1533 67.633C42.8039 69.1223 36.1961 69.1223 29.8467 67.633C20.6774 65.4821 13.5179 58.3227 11.367 49.1533C9.87766 42.8039 9.87766 36.1961 11.367 29.8467C13.5179 20.6773 20.6773 13.5179 29.8467 11.367ZM49.4203 34.5512C50.1238 33.7976 50.083 32.6163 49.3294 31.9129C48.5757 31.2094 47.3944 31.2502 46.691 32.0039L37.1202 42.2583L32.2641 37.4022C31.5351 36.6732 30.3532 36.6732 29.6242 37.4022C28.8952 38.1312 28.8952 39.3131 29.6242 40.0421L35.8466 46.2644C36.2045 46.6224 36.6925 46.8196 37.1987 46.8109C37.7049 46.8022 38.1858 46.5883 38.5312 46.2182L49.4203 34.5512Z" fill="#4FBF67"/>
</svg>
