<svg width="28" height="28" viewBox="0 0 28 28" fill="none" xmlns="http://www.w3.org/2000/svg">
<g clip-path="url(#clip0_762_7706)">
<g filter="url(#filter0_d_762_7706)">
<rect width="28" height="28" rx="6" fill="#EF6087" shape-rendering="crispEdges"/>
<g clip-path="url(#clip1_762_7706)">
<path fill-rule="evenodd" clip-rule="evenodd" d="M5 6.5C5.41421 6.5 5.75 6.83579 5.75 7.25V9.5H8C8.41421 9.5 8.75 9.83579 8.75 10.25C8.75 10.6642 8.41421 11 8 11H5C4.58579 11 4.25 10.6642 4.25 10.25V7.25C4.25 6.83579 4.58579 6.5 5 6.5Z" fill="white"/>
<path fill-rule="evenodd" clip-rule="evenodd" d="M5.14489 9.93678C6.68511 6.58574 10.0653 4.25 14.0004 4.25C19.3856 4.25 23.7504 8.61479 23.7504 14C23.7504 14.4142 23.4146 14.75 23.0004 14.75C22.5861 14.75 22.2504 14.4142 22.2504 14C22.2504 9.44321 18.5571 5.75 14.0004 5.75C10.6754 5.75 7.8136 7.72226 6.50782 10.5632C6.33483 10.9396 5.8895 11.1045 5.51314 10.9315C5.13677 10.7585 4.9719 10.3131 5.14489 9.93678Z" fill="white"/>
<path fill-rule="evenodd" clip-rule="evenodd" d="M19.25 17.75C19.25 17.3358 19.5858 17 20 17H23C23.4142 17 23.75 17.3358 23.75 17.75V20.75C23.75 21.1642 23.4142 21.5 23 21.5C22.5858 21.5 22.25 21.1642 22.25 20.75V18.5H20C19.5858 18.5 19.25 18.1642 19.25 17.75Z" fill="white"/>
<path fill-rule="evenodd" clip-rule="evenodd" d="M5 13.25C5.41421 13.25 5.75 13.5858 5.75 14C5.75 18.5568 9.44321 22.25 14 22.25C17.3249 22.25 20.1868 20.2777 21.4925 17.4368C21.6655 17.0604 22.1109 16.8955 22.4872 17.0685C22.8636 17.2415 23.0285 17.6869 22.8555 18.0632C21.3152 21.4143 17.9351 23.75 14 23.75C8.61479 23.75 4.25 19.3852 4.25 14C4.25 13.5858 4.58579 13.25 5 13.25Z" fill="white"/>
</g>
</g>
</g>
<defs>
<filter id="filter0_d_762_7706" x="-56" y="-52" width="140" height="140" filterUnits="userSpaceOnUse" color-interpolation-filters="sRGB">
<feFlood flood-opacity="0" result="BackgroundImageFix"/>
<feColorMatrix in="SourceAlpha" type="matrix" values="0 0 0 0 0 0 0 0 0 0 0 0 0 0 0 0 0 0 127 0" result="hardAlpha"/>
<feOffset dy="4"/>
<feGaussianBlur stdDeviation="28"/>
<feComposite in2="hardAlpha" operator="out"/>
<feColorMatrix type="matrix" values="0 0 0 0 0 0 0 0 0 0 0 0 0 0 0 0 0 0 0.08 0"/>
<feBlend mode="normal" in2="BackgroundImageFix" result="effect1_dropShadow_762_7706"/>
<feBlend mode="normal" in="SourceGraphic" in2="effect1_dropShadow_762_7706" result="shape"/>
</filter>
<clipPath id="clip0_762_7706">
<rect width="28" height="28" fill="white"/>
</clipPath>
<clipPath id="clip1_762_7706">
<rect width="24" height="24" fill="white" transform="translate(2 2)"/>
</clipPath>
</defs>
</svg>