<svg width="25" height="25" viewBox="0 0 25 25" fill="none" xmlns="http://www.w3.org/2000/svg">
<path d="M12.5 3.5C7.541 3.5 3.5 7.541 3.5 12.5C3.5 17.459 7.541 21.5 12.5 21.5C17.459 21.5 21.5 17.459 21.5 12.5C21.5 7.541 17.459 3.5 12.5 3.5Z" fill="white"/>
<path d="M12.5 3.5C7.541 3.5 3.5 7.541 3.5 12.5C3.5 17.459 7.541 21.5 12.5 21.5C17.459 21.5 21.5 17.459 21.5 12.5C21.5 7.541 17.459 3.5 12.5 3.5ZM15.524 14.57C15.785 14.831 15.785 15.263 15.524 15.524C15.389 15.659 15.218 15.722 15.047 15.722C14.876 15.722 14.705 15.659 14.57 15.524L12.5 13.454L10.43 15.524C10.295 15.659 10.124 15.722 9.953 15.722C9.782 15.722 9.611 15.659 9.476 15.524C9.215 15.263 9.215 14.831 9.476 14.57L11.546 12.5L9.476 10.43C9.215 10.169 9.215 9.737 9.476 9.476C9.737 9.215 10.169 9.215 10.43 9.476L12.5 11.546L14.57 9.476C14.831 9.215 15.263 9.215 15.524 9.476C15.785 9.737 15.785 10.169 15.524 10.43L13.454 12.5L15.524 14.57Z" fill="#EC1C36"/>
</svg>
