<svg width="24" height="16" viewBox="0 0 24 16" fill="none" xmlns="http://www.w3.org/2000/svg">
<g clip-path="url(#clip0_588_6411)">
<path d="M0 0H24V16.0002H0V0Z" fill="white"/>
<path d="M13.5 -0.00012207H10.5V6.49985H0V9.49985H10.5V15.9998H13.5V9.49985H24V6.49985H13.5V-0.00012207Z" fill="#D80027"/>
<path d="M18.4584 10.7825L23.9997 13.861V10.7825H18.4584ZM14.6084 10.7825L23.9997 15.9998V14.5245L17.2641 10.7825H14.6084ZM21.4982 15.9998L14.6084 12.1718V15.9998H21.4982Z" fill="#0052B4"/>
<path d="M14.6084 10.7825L23.9997 15.9998V14.5245L17.2641 10.7825H14.6084Z" fill="white"/>
<path d="M14.6084 10.7825L23.9997 15.9998V14.5245L17.2641 10.7825H14.6084Z" fill="#D80027"/>
<path d="M4.23473 10.7823L0 13.135V10.7823H4.23473ZM9.39131 11.4458V15.9998H1.19489L9.39131 11.4458Z" fill="#0052B4"/>
<path d="M6.73561 10.7825L0 14.5245V15.9998L9.39131 10.7825H6.73561Z" fill="#D80027"/>
<path d="M5.54133 5.21725L0 2.13869V5.21725H5.54133ZM9.39131 5.21725L0 -0.00012207V1.47522L6.73561 5.21725H9.39131ZM2.50153 -0.00012207L9.39131 3.82788V-0.00012207H2.50153Z" fill="#0052B4"/>
<path d="M9.39131 5.21725L0 -0.00012207V1.47522L6.73561 5.21725H9.39131Z" fill="white"/>
<path d="M9.39131 5.21725L0 -0.00012207V1.47522L6.73561 5.21725H9.39131Z" fill="#D80027"/>
<path d="M19.765 5.2173L23.9997 2.86464V5.2173H19.765ZM14.6084 4.55383V-0.00012207H22.8048L14.6084 4.55383Z" fill="#0052B4"/>
<path d="M17.2641 5.21725L23.9997 1.47522V-0.00012207L14.6084 5.21725H17.2641Z" fill="#D80027"/>
</g>
<defs>
<clipPath id="clip0_588_6411">
<rect width="24" height="16" fill="white"/>
</clipPath>
</defs>
</svg>
