<svg width="311" height="232" viewBox="0 0 311 232" fill="none" xmlns="http://www.w3.org/2000/svg">
<g clip-path="url(#clip0_346_6433)">
<path d="M311 203.674H0V203.829H311V203.674Z" fill="#EBEBEB"/>
<path d="M279.838 213.682H246.828V213.837H279.838V213.682Z" fill="#EBEBEB"/>
<path d="M206.019 211.735H169.532V211.891H206.019V211.735Z" fill="#EBEBEB"/>
<path d="M248.421 210.833H236.484V210.989H248.421V210.833Z" fill="#EBEBEB"/>
<path d="M89.3564 208.955H62.4922V209.11H89.3564V208.955Z" fill="#EBEBEB"/>
<path d="M59.028 208.955H49.4243V209.11H59.028V208.955Z" fill="#EBEBEB"/>
<path d="M115.487 211.58H81.7744V211.735H115.487V211.58Z" fill="#EBEBEB"/>
<path d="M147.414 175.933H27.312C26.3711 175.931 25.4694 175.556 24.8046 174.89C24.1399 174.224 23.7666 173.322 23.7666 172.381V3.55165C23.7748 2.61618 24.1517 1.72171 24.8156 1.06254C25.4794 0.40337 26.3765 0.0327304 27.312 0.0311279H147.414C148.356 0.0311279 149.259 0.405315 149.925 1.07137C150.591 1.73743 150.966 2.6408 150.966 3.58275V172.381C150.966 172.848 150.874 173.309 150.695 173.74C150.517 174.171 150.255 174.563 149.925 174.892C149.596 175.222 149.204 175.484 148.773 175.662C148.342 175.841 147.88 175.933 147.414 175.933ZM27.312 0.155528C26.4124 0.157176 25.5502 0.515707 24.9146 1.15242C24.2791 1.78914 23.9221 2.65202 23.9221 3.55165V172.381C23.9221 173.281 24.2791 174.144 24.9146 174.78C25.5502 175.417 26.4124 175.776 27.312 175.777H147.414C148.314 175.774 149.176 175.415 149.812 174.779C150.448 174.143 150.807 173.281 150.81 172.381V3.55165C150.807 2.65195 150.448 1.79004 149.812 1.15385C149.176 0.517663 148.314 0.158806 147.414 0.155528H27.312Z" fill="#EBEBEB"/>
<path d="M281.959 175.933H161.85C160.91 175.929 160.008 175.554 159.343 174.889C158.677 174.224 158.302 173.322 158.299 172.381V3.55165C158.309 2.61561 158.687 1.72115 159.352 1.06215C160.017 0.403152 160.914 0.032713 161.85 0.0311279H281.959C282.893 0.0343651 283.789 0.405727 284.451 1.06472C285.114 1.72372 285.49 2.61725 285.498 3.55165V172.381C285.499 172.847 285.408 173.308 285.23 173.738C285.053 174.169 284.792 174.56 284.464 174.89C284.135 175.22 283.745 175.482 283.315 175.66C282.885 175.839 282.424 175.932 281.959 175.933ZM161.85 0.155528C160.951 0.158806 160.089 0.517663 159.453 1.15385C158.816 1.79004 158.458 2.65195 158.454 3.55165V172.381C158.458 173.281 158.816 174.143 159.453 174.779C160.089 175.415 160.951 175.774 161.85 175.777H281.959C282.858 175.774 283.72 175.415 284.356 174.779C284.993 174.143 285.351 173.281 285.355 172.381V3.55165C285.351 2.65195 284.993 1.79004 284.356 1.15385C283.72 0.517663 282.858 0.158806 281.959 0.155528H161.85Z" fill="#EBEBEB"/>
<path d="M258.429 13.2362H231.167V92.8087H258.429V13.2362Z" fill="#F0F0F0"/>
<path d="M256.668 13.2362H225.307V92.8087H256.668V13.2362Z" fill="#F5F5F5"/>
<path d="M254.043 16.3649H227.938V89.6862H254.043V16.3649Z" fill="white"/>
<path d="M247.711 24.4633H234.264V81.5815H247.711V24.4633Z" fill="#F5F5F5"/>
<path d="M219.236 30.3785H191.974V109.951H219.236V30.3785Z" fill="#F0F0F0"/>
<path d="M217.482 30.3785H186.121V109.951H217.482V30.3785Z" fill="#F5F5F5"/>
<path d="M214.851 33.5072H188.746V106.829H214.851V33.5072Z" fill="white"/>
<path d="M203.151 41.6056H200.452C197.484 41.6056 195.078 44.0116 195.078 46.9797V93.3498C195.078 96.3178 197.484 98.7239 200.452 98.7239H203.151C206.119 98.7239 208.525 96.3178 208.525 93.3498V46.9797C208.525 44.0116 206.119 41.6056 203.151 41.6056Z" fill="#F5F5F5"/>
<path d="M172.499 143.359H167.206V203.674H172.499V143.359Z" fill="#E6E6E6"/>
<path d="M169.215 143.359H165.539V203.674H169.215V143.359Z" fill="#F0F0F0"/>
<path d="M227.347 143.352H164.401V149.305H227.347V143.352Z" fill="#F0F0F0"/>
<path d="M235.01 149.305H229.717V203.668H235.01V149.305Z" fill="#E6E6E6"/>
<path d="M231.72 149.305H228.044V203.668H231.72V149.305Z" fill="#F0F0F0"/>
<path d="M268.492 149.305H263.199V203.668H268.492V149.305Z" fill="#E6E6E6"/>
<path d="M265.208 149.305H261.532V203.668H265.208V149.305Z" fill="#F0F0F0"/>
<path d="M205.988 149.305H200.694V203.668H205.988V149.305Z" fill="#E6E6E6"/>
<path d="M202.698 149.305H199.021V203.668H202.698V149.305Z" fill="#F0F0F0"/>
<path d="M268.499 143.359H227.354V149.311H268.499V143.359Z" fill="#E6E6E6"/>
<path d="M224.697 143.228H251.711L255.051 106.53H228.037L224.697 143.228Z" fill="#E6E6E6"/>
<path d="M223.298 143.228H250.311L253.651 106.53H226.638L223.298 143.228Z" fill="#F0F0F0"/>
<path d="M246.617 139.166L249.217 110.592H230.333L227.733 139.166H246.617Z" fill="white"/>
<path d="M128.051 19.1017H83.3916V203.668H128.051V19.1017Z" fill="#EBEBEB"/>
<path d="M123.778 22.8336H87.6646V199.936H123.778V22.8336Z" fill="#FAFAFA"/>
<path d="M81.4946 19.1017H36.835V203.668H81.4946V19.1017Z" fill="#EBEBEB"/>
<path d="M83.3917 19.8293H81.4946V202.946H83.3917V19.8293Z" fill="#E0E0E0"/>
<path d="M77.2212 22.8336H41.1079V199.936H77.2212V22.8336Z" fill="#FAFAFA"/>
<path d="M133.121 16.0663H31.7657C31.3879 16.0663 31.0815 16.3726 31.0815 16.7505V17.0428C31.0815 17.4207 31.3879 17.727 31.7657 17.727H133.121C133.499 17.727 133.805 17.4207 133.805 17.0428V16.7505C133.805 16.3726 133.499 16.0663 133.121 16.0663Z" fill="#E0E0E0"/>
<path d="M123.778 22.8398H87.6646V26.3666H123.778V22.8398Z" fill="#E0E0E0"/>
<path d="M123.772 22.8336H87.6587V28.7799H123.772V22.8336Z" fill="#E0E0E0"/>
<path d="M77.2212 22.8336H41.1079V35.8272H77.2212V22.8336Z" fill="#E0E0E0"/>
<g opacity="0.8">
<path d="M125.532 12.1913H118.64V201.397H125.532V12.1913Z" fill="#F5F5F5"/>
<path d="M123.715 12.1913H120.462V201.397H123.715V12.1913Z" fill="#F0F0F0"/>
<path d="M129.233 12.1913H122.341V201.397H129.233V12.1913Z" fill="#F5F5F5"/>
<path d="M127.41 12.1913H124.157V201.397H127.41V12.1913Z" fill="#F0F0F0"/>
<path d="M132.679 12.1913H125.787V201.397H132.679V12.1913Z" fill="#F5F5F5"/>
</g>
<g opacity="0.8">
<path d="M46.7931 12.1913H32.313V201.397H46.7931V12.1913Z" fill="#F5F5F5"/>
<path d="M42.974 12.1913H36.1382V201.397H42.974V12.1913Z" fill="#F0F0F0"/>
<path d="M54.5617 12.1913H40.0815V201.397H54.5617V12.1913Z" fill="#F5F5F5"/>
<path d="M50.743 12.1913H43.9072V201.397H50.743V12.1913Z" fill="#F0F0F0"/>
<path d="M61.8083 12.1913H47.3281V201.397H61.8083V12.1913Z" fill="#F5F5F5"/>
</g>
<path d="M155.5 231.763C222.105 231.763 276.1 228.611 276.1 224.722C276.1 220.834 222.105 217.681 155.5 217.681C88.8947 217.681 34.9004 220.834 34.9004 224.722C34.9004 228.611 88.8947 231.763 155.5 231.763Z" fill="#F5F5F5"/>
<path d="M49.6469 71.9578L49.0269 72.0067L49.9346 83.5153L50.5547 83.4664L49.6469 71.9578Z" fill="#1E54A2"/>
<path d="M50.9003 87.8221L50.2803 87.8711L50.5749 91.5977L51.1949 91.5487L50.9003 87.8221Z" fill="#1E54A2"/>
<path d="M74.0865 51.0662H98.6119H123.144H147.669H172.195H196.72L197.784 64.5698L198.853 78.0672L199.917 91.5708L200.987 105.068L202.051 118.566L203.12 132.069H178.595H154.063H129.538H105.012H80.4869H55.9614L54.8978 118.566L53.828 105.068L52.7643 91.5708L51.6945 78.0672L50.6309 64.5698L49.561 51.0662H74.0865Z" fill="#1E54A2"/>
<path d="M75.8961 49.2002H100.422H124.947H149.472H173.998H198.523L199.593 62.7038L200.657 76.2012L201.727 89.7048L202.79 103.202L203.86 116.7L204.924 130.203H180.398H155.873H131.347H106.822H82.2964H57.7648L56.7011 116.7L55.6313 103.202L54.5677 89.7048L53.5041 76.2012L52.4342 62.7038L51.3706 49.2002H75.8961Z" fill="white"/>
<path d="M175.068 62.7038H199.593L198.524 49.2002H173.998L175.068 62.7038Z" fill="white"/>
<path d="M150.542 62.7038H175.068L173.998 49.2002H149.473L150.542 62.7038Z" fill="white"/>
<path d="M126.011 62.7038H150.543L149.473 49.2002H124.947L126.011 62.7038Z" fill="white"/>
<path d="M101.485 62.7038H126.011L124.947 49.2002H100.422L101.485 62.7038Z" fill="white"/>
<path d="M76.9601 62.7038H101.486L100.422 49.2002H75.8965L76.9601 62.7038Z" fill="white"/>
<path d="M52.4342 62.7038H76.9597L75.8961 49.2002H51.3706L52.4342 62.7038Z" fill="#F5F5F5"/>
<path d="M176.132 76.2011H200.657L199.593 62.7037H175.068L176.132 76.2011Z" fill="#1E54A2"/>
<path opacity="0.3" d="M151.606 76.2011H176.132L175.068 62.7037H150.542L151.606 76.2011Z" fill="#1E54A2"/>
<path opacity="0.6" d="M127.081 76.2011H151.606L150.542 62.7037H126.011L127.081 76.2011Z" fill="#1E54A2"/>
<path opacity="0.6" d="M102.555 76.2011H127.081L126.011 62.7037H101.485L102.555 76.2011Z" fill="#1E54A2"/>
<path d="M78.0298 76.2011H102.555L101.485 62.7037H76.96L78.0298 76.2011Z" fill="#1E54A2"/>
<path d="M53.5044 76.2011H78.0299L76.96 62.7037H52.4346L53.5044 76.2011Z" fill="#F5F5F5"/>
<path d="M201.895 89.8603H177.052V89.7172L175.97 76.0332H200.806V76.1763L201.895 89.8603ZM177.344 89.5493H201.559L200.514 76.3566H176.299L177.344 89.5493Z" fill="#E0E0E0"/>
<path opacity="0.1" d="M152.676 89.7048H177.201L176.131 76.2012H151.606L152.676 89.7048Z" fill="#1E54A2"/>
<path opacity="0.6" d="M128.144 89.7048H152.676L151.606 76.2012H127.081L128.144 89.7048Z" fill="#1E54A2"/>
<path opacity="0.6" d="M103.619 89.7048H128.144L127.081 76.2012H102.555L103.619 89.7048Z" fill="#1E54A2"/>
<path opacity="0.6" d="M79.0934 89.7048H103.619L102.555 76.2012H78.0298L79.0934 89.7048Z" fill="#1E54A2"/>
<path d="M54.568 89.7048H79.0935L78.0299 76.2012H53.5044L54.568 89.7048Z" fill="#F5F5F5"/>
<path d="M202.958 103.358H178.122V103.215L177.046 89.5306H201.882V89.6737L202.958 103.358ZM178.408 103.047H202.623L201.584 89.8603H177.369L178.408 103.047Z" fill="#E0E0E0"/>
<path d="M153.739 103.202H178.265L177.201 89.7048H152.676L153.739 103.202Z" fill="white"/>
<path opacity="0.1" d="M129.214 103.202H153.74L152.676 89.7048H128.145L129.214 103.202Z" fill="#1E54A2"/>
<path opacity="0.8" d="M104.688 103.202H129.214L128.144 89.7048H103.619L104.688 103.202Z" fill="#1E54A2"/>
<path opacity="0.8" d="M80.1631 103.202H104.689L103.619 89.7048H79.0933L80.1631 103.202Z" fill="#1E54A2"/>
<path d="M55.6315 103.202H80.1632L79.0933 89.7048H54.5679L55.6315 103.202Z" fill="#F5F5F5"/>
<path d="M204.016 116.855H179.186V116.712L178.104 103.028H202.94V103.171L204.016 116.855ZM179.466 116.544H203.68L202.635 103.358H178.433L179.466 116.544Z" fill="#E0E0E0"/>
<path d="M154.803 116.7H179.329L178.265 103.202H153.74L154.803 116.7Z" fill="white"/>
<path d="M130.278 116.7H154.803L153.74 103.202H129.214L130.278 116.7Z" fill="white"/>
<path opacity="0.1" d="M105.752 116.7H130.278L129.214 103.202H104.688L105.752 116.7Z" fill="#1E54A2"/>
<path d="M81.2267 116.7H105.752L104.689 103.202H80.1631L81.2267 116.7Z" fill="#1E54A2"/>
<path d="M56.7012 116.7H81.2266L80.163 103.202H55.6313L56.7012 116.7Z" fill="#F5F5F5"/>
<path d="M205.092 130.359H180.256V130.216L179.173 116.532H204.016V116.675L205.092 130.359ZM180.542 130.048H204.756L203.711 116.855H179.503L180.542 130.048Z" fill="#E0E0E0"/>
<path d="M155.873 130.203H180.399L179.329 116.7H154.803L155.873 130.203Z" fill="white"/>
<path d="M131.348 130.203H155.873L154.803 116.7H130.278L131.348 130.203Z" fill="white"/>
<path d="M106.822 130.203H131.348L130.278 116.7H105.752L106.822 130.203Z" fill="white"/>
<path opacity="0.1" d="M82.2969 130.203H106.822L105.753 116.7H81.2271L82.2969 130.203Z" fill="#1E54A2"/>
<path d="M57.7648 130.203H82.2965L81.2266 116.7H56.7012L57.7648 130.203Z" fill="#F5F5F5"/>
<path d="M199.762 62.8531H174.925V62.71L173.843 49.026H198.685V49.1691L199.762 62.8531ZM175.211 62.5421H199.426L198.381 49.3557H174.16L175.211 62.5421Z" fill="#E0E0E0"/>
<path d="M175.236 62.8531H150.393V62.71L149.311 49.026H174.16V49.1691L175.236 62.8531ZM150.686 62.5421H174.9L173.855 49.3557H149.641L150.686 62.5421Z" fill="#E0E0E0"/>
<path d="M150.711 62.8531H125.868V62.71L124.786 49.026H149.622V49.1691L150.711 62.8531ZM126.16 62.5421H150.375L149.33 49.3557H125.115L126.16 62.5421Z" fill="#E0E0E0"/>
<path d="M126.185 62.8531H101.342V62.71L100.266 49.026H125.103V49.1691L126.185 62.8531ZM101.628 62.5421H125.843L124.804 49.3557H100.59L101.628 62.5421Z" fill="#E0E0E0"/>
<path d="M101.653 62.8531H76.8168V62.71L75.7407 49.026H100.577V49.1691L101.653 62.8531ZM77.1029 62.5421H101.317L100.279 49.3557H76.0642L77.1029 62.5421Z" fill="#E0E0E0"/>
<path d="M77.1279 62.8531H52.2914V62.71L51.2153 49.026H76.0518V49.1691L77.1279 62.8531ZM52.5775 62.5421H76.792L75.7532 49.3557H51.5388L52.5775 62.5421Z" fill="#E0E0E0"/>
<path opacity="0.1" d="M176.132 76.2011H200.657L199.593 62.7037H175.068L176.132 76.2011Z" fill="#1E54A2"/>
<path d="M176.3 76.3567H151.463V76.2137L150.387 62.5297H175.224V62.6727L176.3 76.3567ZM151.749 76.0457H175.964L174.925 62.8531H150.711L151.749 76.0457Z" fill="#E0E0E0"/>
<path d="M151.768 76.3567H126.938V76.2137L125.855 62.5297H150.698V62.6727L151.768 76.3567ZM127.218 76.0457H151.432L150.393 62.8531H126.185L127.218 76.0457Z" fill="#E0E0E0"/>
<path d="M127.249 76.3567H102.412V76.2137L101.33 62.5297H126.173V62.6727L127.249 76.3567ZM102.698 76.0457H126.888L125.868 62.8531H101.654L102.698 76.0457Z" fill="#E0E0E0"/>
<path d="M102.723 76.3567H77.8806V76.2137L76.7983 62.5297H101.635V62.6727L102.723 76.3567ZM78.173 76.0457H102.387L101.342 62.8531H77.128L78.173 76.0457Z" fill="#E0E0E0"/>
<path d="M78.1979 76.3567H53.3552V76.2137L52.2729 62.5297H77.153V62.6727L78.1979 76.3567ZM53.6476 76.0457H77.862L76.8171 62.8531H52.6026L53.6476 76.0457Z" fill="#E0E0E0"/>
<path d="M201.895 89.8603H177.052V89.7172L175.97 76.0332H200.806V76.1763L201.895 89.8603ZM177.344 89.5493H201.559L200.514 76.3566H176.299L177.344 89.5493Z" fill="#E0E0E0"/>
<path d="M177.369 89.8603H152.527V89.7172L151.444 76.0332H176.275V76.1763L177.369 89.8603ZM152.819 89.5493H177.033L175.988 76.3566H151.768L152.819 89.5493Z" fill="#E0E0E0"/>
<path d="M152.844 89.8603H128.001V89.7172L126.925 76.0332H151.768V76.1763L152.844 89.8603ZM128.294 89.5493H152.502L151.463 76.3566H127.249L128.294 89.5493Z" fill="#E0E0E0"/>
<path d="M128.312 89.8603H103.476V89.7172L102.4 76.0332H127.236V76.1763L128.312 89.8603ZM103.762 89.5493H127.977L126.938 76.3566H102.723L103.762 89.5493Z" fill="#E0E0E0"/>
<path d="M103.787 89.8603H78.9501V89.7172L77.874 76.0332H102.71V76.1763L103.787 89.8603ZM79.2362 89.5493H103.451L102.412 76.3566H78.1975L79.2362 89.5493Z" fill="#E0E0E0"/>
<path d="M79.2612 89.8603H54.4247V89.7172L53.3486 76.0332H78.1851V76.1763L79.2612 89.8603ZM54.7357 89.5679H78.9502L77.9052 76.3753H53.6472L54.7357 89.5679Z" fill="#E0E0E0"/>
<path d="M202.958 103.358H178.122V103.215L177.046 89.5306H201.882V89.6737L202.958 103.358ZM178.408 103.047H202.623L201.584 89.8603H177.369L178.408 103.047Z" fill="#E0E0E0"/>
<path d="M178.433 103.358H153.596V103.215L152.514 89.5306H177.357V89.6737L178.433 103.358ZM153.883 103.047H178.097L177.052 89.8603H152.844L153.883 103.047Z" fill="#E0E0E0"/>
<path d="M153.908 103.358H129.071V103.215L127.989 89.5306H152.831V89.6737L153.908 103.358ZM129.357 103.047H153.572L152.527 89.8603H128.312L129.357 103.047Z" fill="#E0E0E0"/>
<path d="M129.376 103.358H104.546V103.215L103.463 89.5306H128.306V89.6737L129.376 103.358ZM104.826 103.047H129.04L127.995 89.8603H103.787L104.826 103.047Z" fill="#E0E0E0"/>
<path d="M104.857 103.358H80.0139V103.215L78.9316 89.5306H103.768V89.6737L104.857 103.358ZM80.3063 103.047H104.496L103.451 89.8603H79.2613L80.3063 103.047Z" fill="#E0E0E0"/>
<path d="M80.3312 103.358H55.4885V103.215L54.4062 89.5306H79.2427V89.6737L80.3312 103.358ZM55.7809 103.047H79.9953L78.9504 89.8603H54.7359L55.7809 103.047Z" fill="#E0E0E0"/>
<path d="M204.016 116.855H179.186V116.712L178.104 103.028H202.94V103.171L204.016 116.855ZM179.466 116.544H203.68L202.635 103.358H178.433L179.466 116.544Z" fill="#E0E0E0"/>
<path d="M179.503 116.855H154.66V116.712L153.584 103.028H178.42V103.171L179.503 116.855ZM154.952 116.544H179.136L178.097 103.358H153.907L154.952 116.544Z" fill="#E0E0E0"/>
<path d="M154.971 116.855H130.135V116.712L129.059 103.028H153.883V103.171L154.971 116.855ZM130.421 116.544H154.635L153.596 103.358H129.376L130.421 116.544Z" fill="#E0E0E0"/>
<path d="M130.446 116.855H105.609V116.712L104.533 103.028H129.376V103.171L130.446 116.855ZM105.895 116.544H130.11L129.071 103.358H104.857L105.895 116.544Z" fill="#E0E0E0"/>
<path d="M105.92 116.855H81.0839V116.712L80.0078 103.028H104.844V103.171L105.92 116.855ZM81.37 116.544H105.584L104.546 103.358H80.3312L81.37 116.544Z" fill="#E0E0E0"/>
<path d="M81.3948 116.855H56.5584V116.712L55.4761 103.028H80.3188V103.171L81.3948 116.855ZM56.8445 116.544H81.0589L80.014 103.358H55.7995L56.8445 116.544Z" fill="#E0E0E0"/>
<path d="M205.092 130.359H180.256V130.216L179.173 116.532H204.016V116.675L205.092 130.359ZM180.542 130.048H204.756L203.711 116.855H179.503L180.542 130.048Z" fill="#E0E0E0"/>
<path d="M180.567 130.359H155.73V130.216L154.648 116.532H179.491V116.675L180.567 130.359ZM156.016 130.048H180.231L179.186 116.855H154.971L156.016 130.048Z" fill="#E0E0E0"/>
<path d="M156.041 130.359H131.204V130.216L130.122 116.532H154.965V116.675L156.041 130.359ZM131.49 130.029H155.705L154.66 116.836H130.446L131.49 130.029Z" fill="#E0E0E0"/>
<path d="M131.516 130.359H106.673V130.216L105.591 116.532H130.427V116.675L131.516 130.359ZM106.984 130.029H131.18L130.135 116.836H105.92L106.984 130.029Z" fill="#E0E0E0"/>
<path d="M106.984 130.359H82.1472V130.216L81.0649 116.532H105.901V116.675L106.984 130.359ZM82.4333 130.048H106.642L105.603 116.855H81.3946L82.4333 130.048Z" fill="#E0E0E0"/>
<path d="M82.4646 130.359H57.622V130.216L56.5459 116.532H81.3824V116.675L82.4646 130.359ZM57.9081 130.029H82.1039L81.0651 116.836H56.8693L57.9081 130.029Z" fill="#E0E0E0"/>
<path d="M241.865 62.1564C243.295 65.0245 244.572 67.9665 245.69 70.9702C246.828 74.0161 247.767 77.1327 248.502 80.3002L248.763 81.5442L248.981 82.7882L249.086 83.4102C249.138 83.7728 249.165 84.1386 249.167 84.5049C249.173 84.8417 249.155 85.1785 249.111 85.5125L249.049 85.9915L248.956 86.4331C248.705 87.4667 248.322 88.4638 247.817 89.4C247.382 90.2114 246.882 90.9872 246.325 91.7201C245.303 93.0656 244.159 94.3148 242.91 95.4521C241.708 96.5888 240.419 97.6287 239.053 98.5621C238.662 98.8308 238.189 98.9531 237.716 98.9077C237.244 98.8624 236.802 98.6521 236.469 98.3138C236.136 97.9756 235.932 97.5308 235.894 97.0577C235.856 96.5845 235.986 96.113 236.261 95.7258L236.323 95.6325C238.035 93.3154 239.569 90.8723 240.913 88.324C241.447 87.3403 241.797 86.2674 241.946 85.158V84.9279C241.952 84.8783 241.952 84.8282 241.946 84.7786C241.946 84.7288 241.908 84.7413 241.908 84.7226L241.778 84.225L241.51 83.2111L241.199 82.1848C241 81.5006 240.758 80.8102 240.54 80.1198C240.322 79.4294 240.061 78.739 239.794 78.0485C239.284 76.6677 238.736 75.2806 238.17 73.906C237.051 71.1568 235.813 68.3516 234.625 65.6956V65.6272C234.202 64.6642 234.172 63.5745 234.539 62.5893C234.907 61.6041 235.644 60.8009 236.594 60.3501C237.544 59.8993 238.633 59.8365 239.628 60.1749C240.624 60.5133 241.448 61.2263 241.927 62.1627L241.865 62.1564Z" fill="#E0A595"/>
<path d="M234.612 96.074L232.989 98.7051C232.9 98.8529 232.84 99.0168 232.815 99.1875C232.789 99.3582 232.797 99.5324 232.838 99.6999C232.88 99.8675 232.954 100.025 233.057 100.164C233.16 100.303 233.289 100.42 233.437 100.509L233.561 100.571L236.155 101.747C236.458 101.883 236.801 101.9 237.115 101.792C237.43 101.685 237.691 101.462 237.847 101.168L238.55 99.8496L240.366 96.8578L238.5 93.9717C236.236 93.953 234.612 96.074 234.612 96.074Z" fill="#E0A595"/>
<path d="M252.457 217.818C252.267 217.883 252.065 217.909 251.864 217.894C251.663 217.879 251.467 217.823 251.288 217.731C251.216 217.668 251.166 217.582 251.146 217.488C251.126 217.394 251.136 217.296 251.176 217.209C251.198 217.135 251.235 217.068 251.285 217.011C251.336 216.954 251.398 216.909 251.469 216.879C252.091 216.574 253.571 217.171 253.633 217.202C253.654 217.209 253.672 217.223 253.684 217.241C253.696 217.258 253.703 217.28 253.701 217.302C253.705 217.323 253.701 217.345 253.69 217.364C253.678 217.382 253.66 217.396 253.639 217.401C253.263 217.586 252.866 217.726 252.457 217.818ZM251.686 217.078C251.641 217.087 251.597 217.101 251.556 217.121C251.515 217.14 251.479 217.166 251.45 217.199C251.421 217.233 251.4 217.272 251.388 217.314C251.325 217.513 251.388 217.576 251.425 217.594C251.68 217.812 252.625 217.594 253.291 217.345C252.782 217.139 252.234 217.048 251.686 217.078Z" fill="#1E54A2"/>
<path d="M253.608 217.439H253.552C253.017 217.283 251.873 216.475 251.86 215.94C251.861 215.855 251.889 215.774 251.941 215.707C251.992 215.641 252.065 215.593 252.146 215.573C252.228 215.545 252.314 215.535 252.4 215.542C252.485 215.55 252.569 215.575 252.644 215.616C253.266 215.94 253.677 217.246 253.695 217.302C253.7 217.322 253.699 217.342 253.694 217.362C253.688 217.381 253.678 217.399 253.664 217.414L253.608 217.439ZM252.271 215.765H252.221C252.084 215.815 252.084 215.884 252.084 215.915C252.084 216.232 252.849 216.866 253.403 217.128C253.26 216.606 252.96 216.142 252.545 215.797C252.46 215.752 252.363 215.741 252.271 215.765Z" fill="#1E54A2"/>
<path d="M218.409 220.138C217.787 220.138 217.221 220.051 217.022 219.777C216.971 219.707 216.943 219.622 216.943 219.535C216.943 219.448 216.971 219.363 217.022 219.292C217.06 219.226 217.111 219.169 217.172 219.124C217.233 219.079 217.303 219.047 217.377 219.031C218.16 218.813 219.815 219.759 219.865 219.796C219.884 219.809 219.9 219.826 219.91 219.847C219.919 219.868 219.923 219.891 219.921 219.914C219.917 219.936 219.907 219.956 219.891 219.972C219.876 219.987 219.855 219.998 219.834 220.001C219.364 220.087 218.887 220.133 218.409 220.138ZM217.663 219.218H217.445C217.399 219.227 217.356 219.247 217.319 219.275C217.281 219.303 217.25 219.338 217.227 219.379C217.147 219.516 217.178 219.585 217.227 219.622C217.451 219.927 218.646 219.939 219.523 219.815C218.949 219.484 218.314 219.272 217.657 219.193L217.663 219.218Z" fill="#1E54A2"/>
<path d="M219.84 220.008H219.796C219.224 219.753 218.092 218.726 218.179 218.198C218.179 218.067 218.291 217.911 218.596 217.88C218.707 217.868 218.82 217.879 218.927 217.912C219.034 217.945 219.133 218 219.218 218.073C219.84 218.571 219.946 219.84 219.952 219.896C219.955 219.915 219.953 219.934 219.945 219.952C219.937 219.97 219.924 219.985 219.908 219.995C219.898 220.002 219.887 220.006 219.875 220.008C219.864 220.011 219.851 220.01 219.84 220.008ZM218.689 218.086H218.621C218.415 218.086 218.403 218.185 218.403 218.21C218.347 218.533 219.118 219.336 219.697 219.684C219.647 219.146 219.429 218.637 219.075 218.229C218.966 218.139 218.83 218.088 218.689 218.086Z" fill="#1E54A2"/>
<path d="M225.04 219.889H220.313L219.84 208.942H224.567L225.04 219.889Z" fill="#E0A595"/>
<path d="M258.876 216.182L254.255 217.184L249.621 206.983L254.243 205.981L258.876 216.182Z" fill="#E0A595"/>
<path d="M253.814 216.717L259.007 215.591C259.099 215.574 259.195 215.588 259.278 215.631C259.361 215.674 259.428 215.743 259.468 215.828L261.271 219.734C261.31 219.817 261.331 219.907 261.334 219.999C261.338 220.09 261.322 220.181 261.29 220.267C261.258 220.353 261.209 220.431 261.145 220.498C261.082 220.564 261.007 220.617 260.923 220.654C260.875 220.677 260.825 220.693 260.774 220.704C258.951 221.065 258.049 221.146 255.767 221.643C254.361 221.948 251.189 222.719 249.248 223.142C247.307 223.565 246.642 221.693 247.382 221.351C250.772 219.802 252.19 218.434 253.105 217.165C253.277 216.933 253.53 216.774 253.814 216.717Z" fill="#263238"/>
<path d="M220.344 219.348H225.506C225.6 219.348 225.692 219.379 225.766 219.438C225.839 219.497 225.89 219.58 225.91 219.672L226.843 223.87C226.882 224.048 226.849 224.235 226.751 224.388C226.654 224.542 226.499 224.651 226.321 224.691C226.267 224.697 226.213 224.697 226.159 224.691C224.293 224.691 221.606 224.554 219.267 224.554C216.531 224.554 214.167 224.704 210.958 224.704C209.011 224.704 208.47 222.738 209.284 222.564C212.985 221.755 216.008 221.668 219.205 219.697C219.544 219.475 219.939 219.354 220.344 219.348Z" fill="#263238"/>
<path opacity="0.2" d="M219.84 208.948L220.082 214.59H224.816L224.573 208.948H219.84Z" fill="black"/>
<path opacity="0.2" d="M254.243 205.981L249.621 206.983L252.016 212.239L256.637 211.244L254.243 205.981Z" fill="black"/>
<path d="M221.656 99.6195C221.656 99.6195 227.03 135.758 229.966 149.311C233.194 164.14 249.628 211.66 249.628 211.66L258.093 209.794C258.093 209.794 245.995 165.303 244.154 150.624C242.151 134.694 237.971 99.6195 237.971 99.6195H221.656Z" fill="#1E54A2"/>
<path d="M247.6 208.818C247.562 208.818 249.18 211.878 249.18 211.878L258.702 209.813L257.9 206.952L247.6 208.818Z" fill="#263238"/>
<path opacity="0.3" d="M225.046 112.495C231.266 113.739 230.594 136.852 229.848 148.751C228.057 140.342 225.438 124.151 223.628 112.675C224.065 112.452 224.567 112.388 225.046 112.495Z" fill="black"/>
<path d="M212.687 99.6195C212.687 99.6195 212.034 134.974 212.55 149.38C213.085 164.376 218.322 213.483 218.322 213.483H226.334C226.334 213.483 226.626 165.253 226.956 150.524C227.348 134.47 229.282 99.6071 229.282 99.6071L212.687 99.6195Z" fill="#1E54A2"/>
<path d="M216.78 210.304C216.743 210.304 217.234 213.632 217.234 213.632H226.974L227.236 210.665L216.78 210.304Z" fill="#263238"/>
<path d="M172.618 44.672C181.046 42.5447 190.351 47.471 193.399 55.6689C196.446 63.8669 192.074 72.239 183.646 74.3663C175.218 76.4935 165.913 71.5735 162.865 63.3693C159.817 55.1651 164.208 46.7992 172.618 44.672ZM182.775 72.04C189.866 70.2486 193.542 63.2014 190.979 56.3034C188.416 49.4054 180.585 45.2567 173.488 47.048C166.391 48.8394 162.715 55.8866 165.278 62.7846C166.604 66.1651 169.1 68.9568 172.311 70.6511C175.523 72.3453 179.236 72.8294 182.775 72.0151V72.04Z" fill="#263238"/>
<path opacity="0.2" d="M182.383 70.9701C188.889 69.328 192.254 62.8841 189.909 56.5459C188.699 53.4445 186.415 50.8816 183.472 49.3251C180.529 47.7687 177.125 47.3225 173.88 48.0681C167.38 49.7102 164.003 56.1541 166.354 62.4923C167.566 65.5921 169.851 68.1534 172.793 69.7096C175.735 71.2657 179.139 71.713 182.383 70.9701Z" fill="#1E54A2"/>
<path d="M182.029 74.1797C182.305 75.4095 182.646 76.6241 183.049 77.8184C183.447 79.0188 183.857 80.2131 184.293 81.3949C184.728 82.5767 185.22 83.7585 185.711 84.9278C186.333 86.0723 186.333 87.3723 188.242 88.1809C188.535 88.2865 188.849 88.3174 189.157 88.2707C189.464 88.2239 189.755 88.1012 190.003 87.9134C190.086 87.8447 190.157 87.7627 190.214 87.6709C191.097 86.1407 190.065 85.1082 189.63 83.9389C189.088 82.7819 188.522 81.625 187.944 80.4743C187.365 79.3236 186.737 78.1854 186.078 77.0533C185.419 75.9213 184.747 74.7955 183.982 73.6945C183.805 73.5308 183.585 73.4219 183.347 73.3811C183.11 73.3402 182.866 73.3692 182.644 73.4644C182.246 73.6012 181.966 73.906 182.029 74.1797Z" fill="#263238"/>
<path d="M216.183 44.6782C216.282 45.0452 216.183 45.3935 215.915 45.4557C215.648 45.5179 215.405 45.2691 215.293 44.8959C215.181 44.5227 215.293 44.1806 215.561 44.1184C215.828 44.0562 216.089 44.305 216.183 44.6782Z" fill="#263238"/>
<path d="M216.195 45.406C216.041 46.6471 215.716 47.861 215.231 49.0136C215.531 49.1333 215.855 49.1848 216.177 49.1644C216.5 49.1439 216.814 49.0521 217.097 48.8954L216.195 45.406Z" fill="#CB9F98"/>
<path d="M217.016 42.296C217.043 42.2864 217.067 42.2708 217.086 42.2502C217.106 42.2297 217.12 42.2049 217.128 42.1778C217.149 42.1233 217.147 42.0629 217.124 42.0095C217.101 41.9561 217.058 41.9138 217.004 41.8917C216.676 41.7516 216.32 41.6926 215.965 41.7197C215.609 41.7467 215.266 41.8591 214.964 42.0472C214.916 42.0832 214.884 42.1359 214.873 42.1948C214.863 42.2536 214.875 42.3142 214.908 42.3644C214.944 42.4124 214.997 42.4445 215.056 42.4537C215.115 42.463 215.176 42.4488 215.225 42.4142C215.465 42.2688 215.737 42.1833 216.017 42.1649C216.298 42.1465 216.578 42.1957 216.836 42.3084C216.865 42.319 216.896 42.3234 216.927 42.3212C216.958 42.3191 216.989 42.3105 217.016 42.296Z" fill="#263238"/>
<path d="M228.486 46.4634C228.934 50.0585 229.257 53.9274 231.272 56.9192C231.272 56.9192 231.335 60.4335 224.934 61.012C217.893 61.634 220.58 57.902 220.58 57.902C223.155 57.28 223.242 53.8652 221.824 51.2901L228.486 46.4634Z" fill="#E0A595"/>
<path d="M232.56 59.1211C232.958 57.5412 233.387 55.7312 232.187 55.2585C230.868 54.7422 223.846 54.6365 221.519 55.9427C219.193 57.2489 220.101 60.334 220.101 60.334L232.56 59.1211Z" fill="#1E54A2"/>
<path d="M239.47 58.499C243.824 59.743 247.189 71.3433 247.189 71.3433L237.032 76.3193C235.617 73.3036 234.355 70.2187 233.25 67.0764C231.204 61.298 234.986 57.255 239.47 58.499Z" fill="#263238"/>
<g opacity="0.4">
<path d="M236.053 60.6193L234.344 64.5291L234.914 64.7782L236.623 60.8684L236.053 60.6193Z" fill="white"/>
<path d="M241.871 60.2531L241.174 61.8516L241.74 62.1004L242.313 60.7942C242.17 60.6076 242.02 60.4272 241.871 60.2531Z" fill="white"/>
<path d="M238.722 67.4444L237.013 71.3541L237.583 71.6032L239.292 67.6935L238.722 67.4444Z" fill="white"/>
<path d="M245.454 66.585C245.348 66.33 245.236 66.0625 245.118 65.8013L243.874 68.706L244.446 68.9548L245.454 66.585Z" fill="white"/>
</g>
<path d="M211.81 61.6091C210.678 65.9631 209.54 76.3194 212.687 99.6008C223.441 100.702 233.294 101.367 237.971 99.6008C238.183 94.9669 235.819 76.251 239.451 58.4929C236.656 57.9529 233.828 57.5955 230.986 57.423C227.406 57.2115 223.818 57.2115 220.238 57.423C218.619 57.5796 217.009 57.8267 215.417 58.1632C214.553 58.3413 213.757 58.7589 213.119 59.3683C212.481 59.9776 212.027 60.7541 211.81 61.6091Z" fill="#263238"/>
<g opacity="0.4">
<path d="M216.518 58.499L217.059 58.81L217.638 57.7899L216.848 57.9268L216.518 58.499Z" fill="white"/>
<path d="M213.504 63.7877L211.396 67.4971L211.936 67.8045L214.045 64.0952L213.504 63.7877Z" fill="white"/>
<path d="M220.578 61.8471L218.469 65.556L219.009 65.8635L221.119 62.1546L220.578 61.8471Z" fill="white"/>
<path d="M226.714 59.3097L224.623 63.0221L225.165 63.3273L227.255 59.615L226.714 59.3097Z" fill="white"/>
<path d="M234.715 57.9441L232.606 61.6534L233.147 61.9609L235.256 58.2515L234.715 57.9441Z" fill="white"/>
<path d="M215.456 70.8677L213.347 74.5767L213.887 74.8842L215.997 71.1752L215.456 70.8677Z" fill="white"/>
<path d="M221.621 68.293L219.53 72.0054L220.072 72.3106L222.163 68.5983L221.621 68.293Z" fill="white"/>
<path d="M228.66 66.3559L226.569 70.0682L227.111 70.3735L229.202 66.6612L228.66 66.3559Z" fill="white"/>
<path d="M236.673 65.0294L234.564 68.7388L235.105 69.0462L237.214 65.3369L236.673 65.0294Z" fill="white"/>
<path d="M210.796 80.157C210.802 80.1982 210.802 80.2402 210.796 80.2814L210.852 80.1881L210.796 80.157Z" fill="white"/>
<path d="M217.39 77.9295L215.281 81.6388L215.822 81.9462L217.931 78.2369L217.39 77.9295Z" fill="white"/>
<path d="M224.453 75.9779L222.344 79.6873L222.885 79.9947L224.994 76.2854L224.453 75.9779Z" fill="white"/>
<path d="M231.524 74.0304L229.416 77.7397L229.956 78.0472L232.065 74.3378L231.524 74.0304Z" fill="white"/>
<path d="M236.497 75.8093L237.038 76.1203L237.53 75.2557C237.53 74.8017 237.573 74.3414 237.598 73.8873L236.497 75.8093Z" fill="white"/>
<path d="M212.799 87.2602L212.264 86.9554L211.399 88.4731C211.431 88.8277 211.462 89.1822 211.499 89.5492L212.799 87.2602Z" fill="white"/>
<path d="M219.337 85.01L217.228 88.7194L217.769 89.0268L219.878 85.3175L219.337 85.01Z" fill="white"/>
<path d="M226.408 83.0624L224.299 86.7717L224.84 87.0791L226.949 83.3698L226.408 83.0624Z" fill="white"/>
<path d="M233.472 81.1016L231.363 84.8109L231.904 85.1183L234.012 81.409L233.472 81.1016Z" fill="white"/>
<path d="M214.205 94.0276L212.376 97.2496C212.39 97.4814 212.419 97.712 212.463 97.94L212.637 98.0395L214.746 94.3075L214.205 94.0276Z" fill="white"/>
<path d="M221.292 92.0975L219.183 95.8069L219.723 96.1143L221.832 92.405L221.292 92.0975Z" fill="white"/>
<path d="M228.363 90.1499L226.254 93.8593L226.795 94.1667L228.904 90.4574L228.363 90.1499Z" fill="white"/>
<path d="M235.428 88.183L233.319 91.8923L233.86 92.1998L235.969 88.4904L235.428 88.183Z" fill="white"/>
<path d="M223.765 99.464L223.223 99.153L222.477 100.472L223.167 100.509L223.765 99.464Z" fill="white"/>
<path d="M230.837 97.5171L230.296 97.2123L228.312 100.702H229.021L230.837 97.5171Z" fill="white"/>
<path d="M237.878 95.6324V95.5515L237.374 95.2654L235.265 98.9974L235.806 99.3084L237.878 95.6324Z" fill="white"/>
</g>
<path opacity="0.3" d="M211.648 62.3057C215.828 58.4804 217.308 65.6645 217.053 68.8927C216.332 77.8433 211.15 80.7853 210.833 81.0528C210.311 71.1008 210.939 65.4344 211.648 62.3057Z" fill="black"/>
<path d="M218.161 66.4482C217.091 67.8539 215.984 69.2659 214.883 70.6592L211.555 74.839L208.221 79.0251C207.126 80.4183 206.013 81.793 204.949 83.1738L204.707 83.4848C204.217 84.1194 203.498 84.5369 202.704 84.6479C201.46 84.8159 200.216 84.9341 199.028 84.9838C197.84 85.0336 196.602 85.0336 195.402 84.9838C194.201 84.9341 193.007 84.8345 191.819 84.679C190.616 84.5399 189.422 84.3322 188.242 84.057C187.788 83.9446 187.387 83.6789 187.105 83.3047C186.824 82.9306 186.681 82.471 186.699 82.0033C186.717 81.5356 186.896 81.0886 187.206 80.7375C187.515 80.3865 187.936 80.1529 188.398 80.0762H188.497L191.751 79.5351C192.841 79.3526 193.921 79.1598 194.991 78.9566C196.061 78.7638 197.118 78.5275 198.163 78.3346C199.208 78.1418 200.222 77.8246 201.224 77.5634L198.978 78.994C200.975 75.884 203.052 72.9295 205.198 70.0123C206.262 68.5506 207.357 67.1138 208.457 65.6583C209.558 64.2028 210.678 62.8157 211.841 61.4225C212.171 61.0063 212.58 60.6592 213.044 60.401C213.508 60.1428 214.019 59.9785 214.546 59.9176C215.074 59.8566 215.608 59.9002 216.119 60.0458C216.63 60.1915 217.107 60.4362 217.523 60.7662C217.939 61.0962 218.286 61.505 218.545 61.9691C218.803 62.4333 218.967 62.9437 219.028 63.4713C219.089 63.9989 219.045 64.5334 218.9 65.0442C218.754 65.5549 218.509 66.032 218.179 66.4482H218.161Z" fill="#E0A595"/>
<path d="M186.377 79.647L183.447 80.636C183.119 80.7465 182.848 80.983 182.694 81.2932C182.54 81.6035 182.515 81.9622 182.626 82.2905C182.644 82.3434 182.665 82.3953 182.688 82.446L183.932 85.0086C184.08 85.3053 184.335 85.5345 184.646 85.65C184.957 85.7655 185.299 85.7586 185.605 85.6306L186.986 85.0646L190.295 83.9264L190.718 80.5302C188.983 79.025 186.377 79.647 186.377 79.647Z" fill="#E0A595"/>
<path d="M220.319 62.2311C222.141 68.4884 212.581 77.1591 212.581 77.1591L204.016 68.731C204.016 68.731 206.846 65.2042 208.837 62.878C214.391 56.3656 218.869 57.224 220.319 62.2311Z" fill="#263238"/>
<g opacity="0.4">
<path d="M214.671 58.4679C214.429 58.5425 214.186 58.6296 213.95 58.7291L213.67 59.7119L214.292 59.8736L214.671 58.4679Z" fill="white"/>
<path d="M205.913 70.6093L206.256 69.384L205.658 69.2161L205.41 70.1117L205.913 70.6093Z" fill="white"/>
<path d="M212.04 65.5875L210.897 69.6986L211.497 69.8651L212.639 65.754L212.04 65.5875Z" fill="white"/>
<path d="M218.752 63.1264L217.6 67.2219L218.199 67.3903L219.351 63.2948L218.752 63.1264Z" fill="white"/>
<path d="M216.251 72.183L215.629 72.0212L214.852 74.814C215.158 74.474 215.476 74.107 215.803 73.7131L216.251 72.183Z" fill="white"/>
</g>
<path d="M228.318 40.7596C229.189 45.3748 229.935 48.0246 228.237 50.9355C225.674 55.2895 219.529 54.6675 217.309 50.4068C215.299 46.5753 214.199 39.6773 218.192 36.7228C219.068 36.0686 220.098 35.6501 221.182 35.5073C222.266 35.3645 223.369 35.5021 224.385 35.9071C225.401 36.3121 226.296 36.9708 226.984 37.8204C227.673 38.6699 228.132 39.6819 228.318 40.7596Z" fill="#E0A595"/>
<path d="M219.187 44.9519C216.836 44.7777 217.022 41.2199 218.366 39.9759C214.97 39.839 210.715 39.7022 211.754 36.0013C212.519 33.308 219.635 33.2396 216.319 31.3736C219.498 29.4019 221.383 32.686 219.821 33.4138C224.797 31.4794 230.52 30.0923 228.48 34.863C231.901 34.3095 234.252 39.9883 232.491 42.439C230.731 44.8897 233.798 45.3313 234.289 44.193C234.532 47.5083 231.142 47.4088 230.657 46.7868C232.697 49.8968 228.585 53.7967 224.405 51.6944C220.226 49.592 219.187 44.9519 219.187 44.9519Z" fill="#263238"/>
<path d="M227.13 35.1741C229.773 33.6688 230.24 31.7779 229.176 29.9866C233.555 31.4918 230.793 35.4851 227.13 35.1741Z" fill="#263238"/>
<path d="M221.146 44.1931C221.382 45.1533 221.29 46.1647 220.885 47.0667C220.344 48.2547 219.293 47.9562 218.789 46.8863C218.335 45.9222 218.067 44.1495 218.926 43.316C219.784 42.4826 220.854 43.0424 221.146 44.1931Z" fill="#E0A595"/>
<path d="M86.9182 163.741C86.93 163.904 86.9097 164.068 86.8583 164.223C86.8069 164.378 86.7254 164.522 86.6185 164.645C86.5117 164.769 86.3815 164.87 86.2355 164.944C86.0895 165.017 85.9304 165.061 85.7675 165.073C85.5788 165.084 85.3898 165.055 85.2139 164.985C82.1785 163.741 77.7499 162.566 76.2135 160.899C74.3475 158.84 72.0213 158.877 70.3294 157.864C68.6376 156.85 67.4558 155.432 68.8615 153.889C70.2672 152.346 70.2299 152.34 70.2299 150.026C70.2299 147.713 71.8036 147.377 73.8002 147.489C75.7968 147.601 74.6772 143.402 77.7312 145.766C80.7852 148.129 80.0575 152.664 81.8115 154.971C83.5656 157.279 85.4316 154.66 86.2029 158.05C86.621 159.92 86.8606 161.826 86.9182 163.741Z" fill="#1E54A2"/>
<path d="M82.3092 186.351C81.3265 182.619 83.292 178.887 81.5006 176.069C79.7092 173.252 80.4805 170.204 79.8461 167.791C79.2116 165.377 77.9365 163.586 75.7036 165.166C73.4706 166.746 73.4706 166.702 70.7898 166.298C68.1089 165.894 67.2257 167.903 66.7157 170.552C66.2056 173.202 61.7023 170.994 63.475 175.429C65.2477 179.864 70.7338 179.696 72.8486 182.408C74.9634 185.12 72.1955 187.85 76.2136 188.485C80.2317 189.119 84.2498 195.488 82.3092 186.351Z" fill="#1E54A2"/>
<path d="M88.0811 172.991C90.5691 170.073 94.7801 169.551 96.0676 166.466C97.3552 163.381 100.316 162.292 101.933 160.395C103.55 158.498 104.303 156.427 101.728 155.494C99.1527 154.561 99.1963 154.536 97.9958 152.104C96.7954 149.672 94.6432 150.082 92.1739 151.177C89.7046 152.272 88.9582 147.308 86.3271 151.289C83.696 155.27 86.9491 159.68 85.929 162.97C84.9089 166.261 81.0836 165.533 82.8563 169.19C84.629 172.847 81.6808 179.789 88.0811 172.991Z" fill="#1E54A2"/>
<path d="M81.3142 143.713C80.8042 140.715 78.2042 139.036 78.5525 136.249C78.9008 133.462 77.3645 131.752 77.0348 129.805C76.7052 127.858 77.0348 126.042 79.0999 126.104C81.1649 126.166 81.1711 126.142 82.9252 124.636C84.6792 123.131 85.2204 124.636 86.4395 126.235C87.6586 127.833 90.638 125.495 90.8246 129.345C91.0112 133.195 87.3103 133.805 86.7007 136.635C86.0912 139.465 88.9213 140.081 86.2964 142.357C83.6716 144.634 82.9065 150.86 81.3142 143.713Z" fill="#263238"/>
<path d="M82.278 210.267C82.1368 210.272 81.9982 210.228 81.8851 210.143C81.7721 210.058 81.6913 209.937 81.656 209.801C80.1321 204.004 81.2144 197.006 82.477 188.908C83.4847 182.426 84.6229 175.081 84.6229 167.019C84.6229 162.193 83.8641 157.385 83.1923 153.143C82.5019 148.789 81.911 145.013 82.3153 142.357C82.3409 142.192 82.4309 142.044 82.5657 141.946C82.7004 141.847 82.8688 141.806 83.0337 141.832C83.1987 141.857 83.3467 141.947 83.4453 142.082C83.5439 142.217 83.5849 142.385 83.5593 142.55C83.1799 145.007 83.7584 148.689 84.4363 152.95C85.1143 157.21 85.8794 162.093 85.8794 167.019C85.8794 175.174 84.7287 182.569 83.7148 189.1C82.4708 197.062 81.4134 203.941 82.8689 209.483C82.9106 209.643 82.8876 209.812 82.8048 209.954C82.7221 210.096 82.5863 210.2 82.4273 210.242C82.3795 210.26 82.3289 210.268 82.278 210.267Z" fill="#263238"/>
<path d="M82.3965 194.929C83.1429 190.724 83.3357 187.073 86.0352 184.249C88.7347 181.425 88.4548 178.184 89.7112 175.709C90.9676 173.233 92.8212 171.448 95.1288 173.264C97.4364 175.081 97.4364 175.031 100.677 174.801C103.918 174.571 104.54 176.741 104.583 179.553C104.627 182.364 110.393 180.38 107.382 184.889C104.372 189.399 97.9527 188.821 94.8987 191.508C91.8447 194.195 95.5207 197.983 90.6318 198.35C85.7428 198.717 82.8132 196.459 82.3965 194.929Z" fill="#263238"/>
<path d="M69.1848 200.968H97.5231C99.8183 200.968 94.7739 224.722 90.7371 224.722H75.9708C71.934 224.722 66.8896 200.968 69.1848 200.968Z" fill="#1E54A2"/>
<path opacity="0.3" d="M69.1848 200.968H97.5231C99.8183 200.968 94.7739 224.722 90.7371 224.722H75.9708C71.934 224.722 66.8896 200.968 69.1848 200.968Z" fill="white"/>
</g>
<defs>
<clipPath id="clip0_346_6433">
<rect width="311" height="231.763" fill="white"/>
</clipPath>
</defs>
</svg>
