<svg width="31" height="21" viewBox="0 0 31 21" fill="none" xmlns="http://www.w3.org/2000/svg">
    <path d="M18.0105 21H25.5938C26.5308 21 27.3271 20.7871 27.9882 20.4163L18.0105 14.4227V21ZM30.1722 17.282C30.2803 16.7967 30.3353 16.2826 30.3353 15.7495V13.3632H23.6477L30.1703 17.282H30.1722ZM0.165942 3.70316C0.0536153 4.21094 -0.00202493 4.72977 5.62866e-05 5.25V7.63636H6.7132L0.165942 3.70316ZM12.323 0H4.73964C3.80926 0 3.01822 0.21 2.35989 0.575591L12.323 6.56059V0ZM2.39023 20.4397C3.0424 20.7948 3.823 21 4.73964 21H12.323V14.4728L2.39023 20.4397ZM5.62866e-05 13.3636V15.75C5.62866e-05 16.2993 0.0578792 16.8286 0.172103 17.3264L6.76913 13.3636H5.62866e-05ZM28.0181 0.598977C27.3517 0.218114 26.5446 0 25.5938 0H18.0105V6.6107L28.0181 0.598977ZM30.3334 7.63636V5.25C30.3334 4.72786 30.2798 4.22434 30.176 3.74802L23.7037 7.63636H30.3334Z" fill="#2E3192" />
    <path d="M23.7037 7.63636L30.176 3.74802C29.8793 2.38111 29.157 1.2495 28.0181 0.598977L18.0105 6.6107V0H17.0626V8.59091H30.3334V7.63636H23.7037ZM6.10352e-05 12.4091V13.3636H6.76913L0.172108 17.3264C0.485394 18.689 1.22951 19.8078 2.39023 20.4397L12.323 14.4728V21H13.2709V12.4091H6.10352e-05ZM30.3334 12.4091H17.0626V21H18.0105V14.4227L27.9882 20.4168C29.1357 19.7734 29.867 18.648 30.1704 17.283L23.6477 13.3636H30.3334V12.4091ZM12.323 0V6.56059L2.3599 0.575591C1.20818 1.21514 0.472124 2.33864 0.165473 3.70316L6.71321 7.63636H6.10352e-05V8.59091H13.2709V0H12.323Z" fill="#E6E7E8" />
    <path d="M17.0626 8.59091V0H13.2709V8.59091H6.10352e-05V12.4091H13.2709V21H17.0626V12.4091H30.3334V8.59091H17.0626Z" fill="#BE1E2D" />
    <path d="M10.3978 7.63632L0.8949 1.92384C0.690624 2.2293 0.526635 2.5653 0.391083 2.92325L8.23367 7.63632H10.3963H10.3978ZM29.9021 18.1793L21.9334 13.3636H19.7267L29.3542 19.1954C29.5775 18.8812 29.7615 18.5406 29.9021 18.1812V18.1793ZM28.7783 1.14111L17.9958 7.63632L20.185 7.63775L29.4893 2.02836C29.2817 1.64798 29.0627 1.40266 28.7783 1.14111ZM0.859354 19.0312C1.07256 19.3582 1.32913 19.6543 1.62195 19.9113L12.3528 13.3636H10.1902L0.859354 19.0312Z" fill="#BE1E2D" />
</svg>
    